<svg version="1.1" viewBox="0.0 0.0 745.3490813648294 636.7139107611548" fill="none" stroke="none" stroke-linecap="square" stroke-miterlimit="10" xmlns:xlink="http://www.w3.org/1999/xlink" xmlns="http://www.w3.org/2000/svg"><clipPath id="p.0"><path d="m0 0l745.34906 0l0 636.7139l-745.34906 0l0 -636.7139z" clip-rule="nonzero"/></clipPath><g clip-path="url(#p.0)"><path fill="#000000" fill-opacity="0.0" d="m0 0l745.34906 0l0 636.7139l-745.34906 0z" fill-rule="evenodd"/><path fill="#d0e2f3" fill-opacity="0.4025" d="m97.59529 209.0066l0 0c-11.837158 -38.99913 62.892517 -96.16567 166.91338 -127.68504l0 0c104.020874 -31.519363 197.94238 -25.455822 209.77954 13.543312l0 0c11.837158 38.999123 -62.892517 96.16567 -166.91339 127.685036l0 0c-104.020874 31.519379 -197.94237 25.455826 -209.77953 -13.543304z" fill-rule="evenodd"/><path stroke="#6fa8dc" stroke-width="1.0" stroke-linejoin="round" stroke-linecap="butt" d="m97.59529 209.0066l0 0c-11.837158 -38.99913 62.892517 -96.16567 166.91338 -127.68504l0 0c104.020874 -31.519363 197.94238 -25.455822 209.77954 13.543312l0 0c11.837158 38.999123 -62.892517 96.16567 -166.91339 127.685036l0 0c-104.020874 31.519379 -197.94237 25.455826 -209.77953 -13.543304z" fill-rule="evenodd"/><path fill="#d0e2f3" fill-opacity="0.4025" d="m157.36513 558.9452l0 0c-20.578033 -67.87451 90.814926 -161.71844 248.80315 -209.60632l0 0c157.98822 -47.88788 302.7448 -31.685516 323.3228 36.188965l0 0c20.578064 67.87451 -90.81488 161.71844 -248.80313 209.60632l0 0c-157.98822 47.88788 -302.74478 31.685486 -323.3228 -36.188965z" fill-rule="evenodd"/><path stroke="#6fa8dc" stroke-width="1.0" stroke-linejoin="round" stroke-linecap="butt" d="m157.36513 558.9452l0 0c-20.578033 -67.87451 90.814926 -161.71844 248.80315 -209.60632l0 0c157.98822 -47.88788 302.7448 -31.685516 323.3228 36.188965l0 0c20.578064 67.87451 -90.81488 161.71844 -248.80313 209.60632l0 0c-157.98822 47.88788 -302.74478 31.685486 -323.3228 -36.188965z" fill-rule="evenodd"/><path fill="#fff2cc" fill-opacity="0.4214" d="m21.855927 253.7083l0 0c0 -90.52251 57.709435 -163.9055 128.89764 -163.9055l0 0c34.185776 0 66.97139 17.268562 91.144394 48.006805c24.172989 30.73825 37.75325 72.42825 37.75325 115.8987l0 0c0 90.52251 -57.709457 163.9055 -128.89764 163.9055l0 0c-71.18821 0 -128.89764 -73.382996 -128.89764 -163.9055z" fill-rule="evenodd"/><path stroke="#ffe599" stroke-width="1.0" stroke-linejoin="round" stroke-linecap="butt" d="m21.855927 253.7083l0 0c0 -90.52251 57.709435 -163.9055 128.89764 -163.9055l0 0c34.185776 0 66.97139 17.268562 91.144394 48.006805c24.172989 30.73825 37.75325 72.42825 37.75325 115.8987l0 0c0 90.52251 -57.709457 163.9055 -128.89764 163.9055l0 0c-71.18821 0 -128.89764 -73.382996 -128.89764 -163.9055z" fill-rule="evenodd"/><path fill="#f9cb9c" fill-opacity="0.3836" d="m16.530485 479.77762l0 0c-36.955242 -101.66388 2.3449917 -209.24951 87.779526 -240.29921l0 0c41.027115 -14.910599 87.423645 -9.816544 128.98288 14.16153c41.55925 23.978073 74.87688 64.87602 92.62343 113.69673l0 0c36.95523 101.66388 -2.3450012 209.24951 -87.77954 240.2992l0 0c-85.434525 31.049744 -184.65105 -26.194397 -221.6063 -127.858246z" fill-rule="evenodd"/><path stroke="#f9cb9c" stroke-width="1.0" stroke-linejoin="round" stroke-linecap="butt" d="m16.530485 479.77762l0 0c-36.955242 -101.66388 2.3449917 -209.24951 87.779526 -240.29921l0 0c41.027115 -14.910599 87.423645 -9.816544 128.98288 14.16153c41.55925 23.978073 74.87688 64.87602 92.62343 113.69673l0 0c36.95523 101.66388 -2.3450012 209.24951 -87.77954 240.2992l0 0c-85.434525 31.049744 -184.65105 -26.194397 -221.6063 -127.858246z" fill-rule="evenodd"/><path fill="#d0e2f3" fill-opacity="0.4025" d="m196.94348 492.9749l0 0c2.574417 -26.683624 76.88104 -41.32779 165.9685 -32.70868l0 0c89.08743 8.619141 159.2201 37.23767 156.64569 63.921265l0 0c-2.574463 26.683655 -76.8811 41.32782 -165.96854 32.70868l0 0c-89.08743 -8.619141 -159.2201 -37.23767 -156.64566 -63.921265z" fill-rule="evenodd"/><path stroke="#6fa8dc" stroke-width="1.0" stroke-linejoin="round" stroke-linecap="butt" d="m196.94348 492.9749l0 0c2.574417 -26.683624 76.88104 -41.32779 165.9685 -32.70868l0 0c89.08743 8.619141 159.2201 37.23767 156.64569 63.921265l0 0c-2.574463 26.683655 -76.8811 41.32782 -165.96854 32.70868l0 0c-89.08743 -8.619141 -159.2201 -37.23767 -156.64566 -63.921265z" fill-rule="evenodd"/><path fill="#d0e2f3" fill-opacity="0.4025" d="m309.57782 17.91832l0 0c59.098816 -39.26005 181.0607 40.376858 272.40942 177.87402l0 0c91.348816 137.49715 117.49255 280.78717 58.393738 320.04724l0 0c-59.098816 39.26001 -181.0607 -40.37686 -272.40945 -177.87402l0 0c-91.348755 -137.49718 -117.49252 -280.7872 -58.393707 -320.04724z" fill-rule="evenodd"/><path stroke="#9fc5e8" stroke-width="1.0" stroke-linejoin="round" stroke-linecap="butt" d="m309.57782 17.91832l0 0c59.098816 -39.26005 181.0607 40.376858 272.40942 177.87402l0 0c91.348816 137.49715 117.49255 280.78717 58.393738 320.04724l0 0c-59.098816 39.26001 -181.0607 -40.37686 -272.40945 -177.87402l0 0c-91.348755 -137.49718 -117.49252 -280.7872 -58.393707 -320.04724z" fill-rule="evenodd"/><path fill="#ffd966" d="m173.02887 302.98688l0 0c0 -12.898254 10.456085 -23.35434 23.35434 -23.35434l0 0c6.193939 0 12.134216 2.4605408 16.513992 6.840332c4.3797913 4.3797913 6.840332 10.320068 6.840332 16.514008l0 0c0 12.898254 -10.456085 23.35434 -23.354324 23.35434l0 0c-12.898254 0 -23.35434 -10.456085 -23.35434 -23.35434z" fill-rule="evenodd"/><path stroke="#000000" stroke-width="1.0" stroke-linejoin="round" stroke-linecap="butt" d="m173.02887 302.98688l0 0c0 -12.898254 10.456085 -23.35434 23.35434 -23.35434l0 0c6.193939 0 12.134216 2.4605408 16.513992 6.840332c4.3797913 4.3797913 6.840332 10.320068 6.840332 16.514008l0 0c0 12.898254 -10.456085 23.35434 -23.354324 23.35434l0 0c-12.898254 0 -23.35434 -10.456085 -23.35434 -23.35434z" fill-rule="evenodd"/><path fill="#ffd966" d="m59.46194 290.6168l0 0c0 -12.898224 10.456089 -23.35431 23.354336 -23.35431l0 0c6.193947 0 12.134216 2.4605103 16.514 6.8403015c4.3797913 4.3797913 6.8403244 10.320068 6.8403244 16.514008l0 0c0 12.898254 -10.456085 23.35434 -23.354324 23.35434l0 0c-12.898247 0 -23.354336 -10.456085 -23.354336 -23.35434z" fill-rule="evenodd"/><path stroke="#000000" stroke-width="1.0" stroke-linejoin="round" stroke-linecap="butt" d="m59.46194 290.6168l0 0c0 -12.898224 10.456089 -23.35431 23.354336 -23.35431l0 0c6.193947 0 12.134216 2.4605103 16.514 6.8403015c4.3797913 4.3797913 6.8403244 10.320068 6.8403244 16.514008l0 0c0 12.898254 -10.456085 23.35434 -23.354324 23.35434l0 0c-12.898247 0 -23.354336 -10.456085 -23.354336 -23.35434z" fill-rule="evenodd"/><path fill="#d9d9d9" d="m192.28084 170.56955l0 0c0 -12.898239 10.456085 -23.354324 23.35434 -23.354324l0 0c6.193939 0 12.134216 2.4605408 16.513992 6.840317c4.3797913 4.3797913 6.840332 10.320053 6.840332 16.514008l0 0c0 12.898239 -10.456085 23.35434 -23.354324 23.35434l0 0c-12.898254 0 -23.35434 -10.4561 -23.35434 -23.35434z" fill-rule="evenodd"/><path stroke="#000000" stroke-width="1.0" stroke-linejoin="round" stroke-linecap="butt" d="m192.28084 170.56955l0 0c0 -12.898239 10.456085 -23.354324 23.35434 -23.354324l0 0c6.193939 0 12.134216 2.4605408 16.513992 6.840317c4.3797913 4.3797913 6.840332 10.320053 6.840332 16.514008l0 0c0 12.898239 -10.456085 23.35434 -23.354324 23.35434l0 0c-12.898254 0 -23.35434 -10.4561 -23.35434 -23.35434z" fill-rule="evenodd"/><path fill="#d9d9d9" d="m346.1942 99.94751l0 0c0 -12.898247 10.456116 -23.354332 23.35434 -23.354332l0 0c6.1939697 0 12.134216 2.4605331 16.514008 6.8403244c4.3797913 4.3797836 6.840332 10.320053 6.840332 16.514008l0 0c0 12.898239 -10.456085 23.354324 -23.35434 23.354324l0 0c-12.898224 0 -23.35434 -10.456085 -23.35434 -23.354324z" fill-rule="evenodd"/><path stroke="#000000" stroke-width="1.0" stroke-linejoin="round" stroke-linecap="butt" d="m346.1942 99.94751l0 0c0 -12.898247 10.456116 -23.354332 23.35434 -23.354332l0 0c6.1939697 0 12.134216 2.4605331 16.514008 6.8403244c4.3797913 4.3797836 6.840332 10.320053 6.840332 16.514008l0 0c0 12.898239 -10.456085 23.354324 -23.35434 23.354324l0 0c-12.898224 0 -23.35434 -10.456085 -23.35434 -23.354324z" fill-rule="evenodd"/><path fill="#d9d9d9" d="m407.13385 253.70866l0 0c0 -12.898239 10.456085 -23.35434 23.35434 -23.35434l0 0c6.193939 0 12.134216 2.4605408 16.514008 6.840332c4.3797913 4.3797913 6.840332 10.320053 6.840332 16.514008l0 0c0 12.898239 -10.456085 23.354324 -23.35434 23.354324l0 0c-12.898254 0 -23.35434 -10.456085 -23.35434 -23.354324z" fill-rule="evenodd"/><path stroke="#000000" stroke-width="1.0" stroke-linejoin="round" stroke-linecap="butt" d="m407.13385 253.70866l0 0c0 -12.898239 10.456085 -23.35434 23.35434 -23.35434l0 0c6.193939 0 12.134216 2.4605408 16.514008 6.840332c4.3797913 4.3797913 6.840332 10.320053 6.840332 16.514008l0 0c0 12.898239 -10.456085 23.354324 -23.35434 23.354324l0 0c-12.898254 0 -23.35434 -10.456085 -23.35434 -23.354324z" fill-rule="evenodd"/><path fill="#d9d9d9" d="m533.3517 280.28085l0 0c0 -12.898254 10.456116 -23.35434 23.35437 -23.35434l0 0c6.1939087 0 12.134216 2.4605408 16.513977 6.840332c4.379822 4.3797607 6.840332 10.320038 6.840332 16.514008l0 0c0 12.898224 -10.456116 23.35431 -23.35431 23.35431l0 0c-12.898254 0 -23.35437 -10.456085 -23.35437 -23.35431z" fill-rule="evenodd"/><path stroke="#000000" stroke-width="1.0" stroke-linejoin="round" stroke-linecap="butt" d="m533.3517 280.28085l0 0c0 -12.898254 10.456116 -23.35434 23.35437 -23.35434l0 0c6.1939087 0 12.134216 2.4605408 16.513977 6.840332c4.379822 4.3797607 6.840332 10.320038 6.840332 16.514008l0 0c0 12.898224 -10.456116 23.35431 -23.35431 23.35431l0 0c-12.898254 0 -23.35437 -10.456085 -23.35437 -23.35431z" fill-rule="evenodd"/><path fill="#d9d9d9" d="m486.64304 412.4042l0 0c0 -12.898254 10.456085 -23.35434 23.35434 -23.35434l0 0c6.1939697 0 12.134216 2.4605408 16.513977 6.840332c4.379822 4.3797913 6.840332 10.320038 6.840332 16.514008l0 0c0 12.898224 -10.456055 23.35434 -23.35431 23.35434l0 0c-12.898254 0 -23.35434 -10.456116 -23.35434 -23.35434z" fill-rule="evenodd"/><path stroke="#000000" stroke-width="1.0" stroke-linejoin="round" stroke-linecap="butt" d="m486.64304 412.4042l0 0c0 -12.898254 10.456085 -23.35434 23.35434 -23.35434l0 0c6.1939697 0 12.134216 2.4605408 16.513977 6.840332c4.379822 4.3797913 6.840332 10.320038 6.840332 16.514008l0 0c0 12.898224 -10.456055 23.35434 -23.35431 23.35434l0 0c-12.898254 0 -23.35434 -10.456116 -23.35434 -23.35434z" fill-rule="evenodd"/><path fill="#d9d9d9" d="m599.0971 365.69553l0 0c0 -12.898224 10.456116 -23.35431 23.35431 -23.35431l0 0c6.1939697 0 12.134216 2.4605408 16.514038 6.8403015c4.3797607 4.3797913 6.840332 10.320068 6.840332 16.514008l0 0c0 12.898254 -10.456116 23.35434 -23.35437 23.35434l0 0c-12.898193 0 -23.35431 -10.456085 -23.35431 -23.35434z" fill-rule="evenodd"/><path stroke="#000000" stroke-width="1.0" stroke-linejoin="round" stroke-linecap="butt" d="m599.0971 365.69553l0 0c0 -12.898224 10.456116 -23.35431 23.35431 -23.35431l0 0c6.1939697 0 12.134216 2.4605408 16.514038 6.8403015c4.3797607 4.3797913 6.840332 10.320068 6.840332 16.514008l0 0c0 12.898254 -10.456116 23.35434 -23.35437 23.35434l0 0c-12.898193 0 -23.35431 -10.456085 -23.35431 -23.35434z" fill-rule="evenodd"/><path fill="#d9d9d9" d="m402.34122 508.22308l0 0c0 -12.898224 10.456085 -23.35431 23.35431 -23.35431l0 0c6.1939697 0 12.134216 2.4605408 16.514008 6.840332c4.3797913 4.3797607 6.840332 10.320038 6.840332 16.513977l0 0c0 12.898254 -10.456085 23.35437 -23.35434 23.35437l0 0c-12.898224 0 -23.35431 -10.456116 -23.35431 -23.35437z" fill-rule="evenodd"/><path stroke="#000000" stroke-width="1.0" stroke-linejoin="round" stroke-linecap="butt" d="m402.34122 508.22308l0 0c0 -12.898224 10.456085 -23.35431 23.35431 -23.35431l0 0c6.1939697 0 12.134216 2.4605408 16.514008 6.840332c4.3797913 4.3797607 6.840332 10.320038 6.840332 16.513977l0 0c0 12.898254 -10.456085 23.35437 -23.35434 23.35437l0 0c-12.898224 0 -23.35431 -10.456116 -23.35431 -23.35437z" fill-rule="evenodd"/><path fill="#3d85c6" d="m278.8609 502.07086l0 0c0 -12.898224 10.456085 -23.35434 23.35431 -23.35434l0 0c6.1939697 0 12.134247 2.4605408 16.514008 6.840332c4.3797913 4.3797913 6.840332 10.320068 6.840332 16.514008l0 0c0 12.898254 -10.456085 23.35431 -23.35434 23.35431l0 0c-12.898224 0 -23.35431 -10.456055 -23.35431 -23.35431z" fill-rule="evenodd"/><path stroke="#000000" stroke-width="1.0" stroke-linejoin="round" stroke-linecap="butt" d="m278.8609 502.07086l0 0c0 -12.898224 10.456085 -23.35434 23.35431 -23.35434l0 0c6.1939697 0 12.134247 2.4605408 16.514008 6.840332c4.3797913 4.3797913 6.840332 10.320068 6.840332 16.514008l0 0c0 12.898254 -10.456085 23.35431 -23.35434 23.35431l0 0c-12.898224 0 -23.35431 -10.456055 -23.35431 -23.35431z" fill-rule="evenodd"/><path fill="#8e7cc3" d="m45.02887 470.98688l0 0c0 -12.898254 10.456093 -23.35434 23.354332 -23.35434l0 0c6.1939545 0 12.134216 2.4605408 16.514008 6.840332c4.3797836 4.3797913 6.8403244 10.320068 6.8403244 16.514008l0 0c0 12.898254 -10.456093 23.35434 -23.354332 23.35434l0 0c-12.898239 0 -23.354332 -10.456085 -23.354332 -23.35434z" fill-rule="evenodd"/><path stroke="#000000" stroke-width="1.0" stroke-linejoin="round" stroke-linecap="butt" d="m45.02887 470.98688l0 0c0 -12.898254 10.456093 -23.35434 23.354332 -23.35434l0 0c6.1939545 0 12.134216 2.4605408 16.514008 6.840332c4.3797836 4.3797913 6.8403244 10.320068 6.8403244 16.514008l0 0c0 12.898254 -10.456093 23.35434 -23.354332 23.35434l0 0c-12.898239 0 -23.354332 -10.456085 -23.354332 -23.35434z" fill-rule="evenodd"/><path fill="#000000" fill-opacity="0.0" d="m55.181103 134.28346l88.913376 0l0 64.62993l-88.913376 0z" fill-rule="evenodd"/><path fill="#000000" d="m79.634224 172.54533l3.21875 0.328125q-0.703125 2.390625 -3.1875 4.546875q-2.484375 2.140625 -5.9375 2.140625q-2.140625 0 -3.9375 -0.984375q-1.796875 -1.0 -2.734375 -2.890625q-0.9375 -1.90625 -0.9375 -4.328125q0 -3.171875 1.453125 -6.140625q1.46875 -2.984375 3.796875 -4.4375q2.34375 -1.453125 5.0625 -1.453125q3.46875 0 5.53125 2.15625q2.0625 2.140625 2.0625 5.859375q0 1.421875 -0.25 2.921875l-14.25 0q-0.078125 0.5625 -0.078125 1.015625q0 2.71875 1.25 4.15625q1.25 1.421875 3.046875 1.421875q1.703125 0 3.34375 -1.109375q1.640625 -1.109375 2.546875 -3.203125zm-9.578125 -4.796875l10.859375 0q0.015625 -0.515625 0.015625 -0.734375q0 -2.46875 -1.25 -3.78125q-1.234375 -1.328125 -3.171875 -1.328125q-2.125 0 -3.875 1.453125q-1.734375 1.453125 -2.578125 4.390625z" fill-rule="nonzero"/><path fill="#000000" fill-opacity="0.0" d="m175.27821 382.34122l88.913376 0l0 64.62991l-88.913376 0z" fill-rule="evenodd"/><path fill="#000000" d="m185.96571 427.1812l3.53125 -16.8125l-2.953125 0l0.515625 -2.546875l2.953125 0l0.578125 -2.75q0.4375 -2.0625 0.890625 -2.96875q0.46875 -0.90625 1.515625 -1.5q1.046875 -0.59375 2.859375 -0.59375q1.25 0 3.640625 0.53125l-0.59375 2.875q-1.6875 -0.4375 -2.8125 -0.4375q-0.96875 0 -1.46875 0.484375q-0.5 0.484375 -0.859375 2.28125l-0.4375 2.078125l3.671875 0l-0.53125 2.546875l-3.671875 0l-3.515625 16.8125l-3.3125 0z" fill-rule="nonzero"/><path fill="#000000" fill-opacity="0.0" d="m75.461945 328.43832l143.1181 0l0 42.015747l-143.1181 0z" fill-rule="evenodd"/><path fill="#000000" d="m85.88382 355.3583l0 -13.359375l1.8125 0l7.015625 10.484375l0 -10.484375l1.6875 0l0 13.359375l-1.8125 0l-7.015625 -10.5l0 10.5l-1.6875 0zm12.676071 -4.84375q0 -2.6875 1.484375 -3.96875q1.25 -1.078125 3.046875 -1.078125q2.0 0 3.265625 1.3125q1.265625 1.296875 1.265625 3.609375q0 1.859375 -0.5625 2.9375q-0.5625 1.0625 -1.640625 1.65625q-1.0625 0.59375 -2.328125 0.59375q-2.03125 0 -3.28125 -1.296875q-1.25 -1.3125 -1.25 -3.765625zm1.6875 0q0 1.859375 0.796875 2.796875q0.8125 0.921875 2.046875 0.921875q1.21875 0 2.03125 -0.921875q0.8125 -0.9375 0.8125 -2.84375q0 -1.796875 -0.8125 -2.71875q-0.8125 -0.921875 -2.03125 -0.921875q-1.234375 0 -2.046875 0.921875q-0.796875 0.90625 -0.796875 2.765625zm15.563217 4.84375l0 -1.21875q-0.90625 1.4375 -2.703125 1.4375q-1.15625 0 -2.125 -0.640625q-0.96875 -0.640625 -1.5 -1.78125q-0.53125 -1.140625 -0.53125 -2.625q0 -1.453125 0.484375 -2.625q0.484375 -1.1875 1.4375 -1.8125q0.96875 -0.625 2.171875 -0.625q0.875 0 1.546875 0.375q0.6875 0.359375 1.109375 0.953125l0 -4.796875l1.640625 0l0 13.359375l-1.53125 0zm-5.171875 -4.828125q0 1.859375 0.78125 2.78125q0.78125 0.921875 1.84375 0.921875q1.078125 0 1.828125 -0.875q0.75 -0.890625 0.75 -2.6875q0 -1.984375 -0.765625 -2.90625q-0.765625 -0.9375 -1.890625 -0.9375q-1.078125 0 -1.8125 0.890625q-0.734375 0.890625 -0.734375 2.8125zm15.906967 1.71875l1.6875 0.203125q-0.40625 1.484375 -1.484375 2.3125q-1.078125 0.8125 -2.765625 0.8125q-2.125 0 -3.375 -1.296875q-1.234375 -1.3125 -1.234375 -3.671875q0 -2.453125 1.25 -3.796875q1.265625 -1.34375 3.265625 -1.34375q1.9375 0 3.15625 1.328125q1.234375 1.3125 1.234375 3.703125q0 0.15625 0 0.4375l-7.21875 0q0.09375 1.59375 0.90625 2.453125q0.8125 0.84375 2.015625 0.84375q0.90625 0 1.546875 -0.46875q0.640625 -0.484375 1.015625 -1.515625zm-5.390625 -2.65625l5.40625 0q-0.109375 -1.21875 -0.625 -1.828125q-0.78125 -0.953125 -2.03125 -0.953125q-1.125 0 -1.90625 0.765625q-0.765625 0.75 -0.84375 2.015625zm8.485092 2.875l1.625 -0.25q0.125 0.96875 0.75 1.5q0.625 0.515625 1.75 0.515625q1.125 0 1.671875 -0.453125q0.546875 -0.46875 0.546875 -1.09375q0 -0.546875 -0.484375 -0.875q-0.328125 -0.21875 -1.671875 -0.546875q-1.8125 -0.46875 -2.515625 -0.796875q-0.6875 -0.328125 -1.046875 -0.90625q-0.359375 -0.59375 -0.359375 -1.3125q0 -0.640625 0.296875 -1.1875q0.296875 -0.5625 0.8125 -0.921875q0.375 -0.28125 1.03125 -0.46875q0.671875 -0.203125 1.421875 -0.203125q1.140625 0 2.0 0.328125q0.859375 0.328125 1.265625 0.890625q0.421875 0.5625 0.578125 1.5l-1.609375 0.21875q-0.109375 -0.75 -0.640625 -1.171875q-0.515625 -0.421875 -1.46875 -0.421875q-1.140625 0 -1.625 0.375q-0.46875 0.375 -0.46875 0.875q0 0.3125 0.1875 0.578125q0.203125 0.265625 0.640625 0.4375q0.234375 0.09375 1.4375 0.421875q1.75 0.453125 2.4375 0.75q0.6875 0.296875 1.078125 0.859375q0.390625 0.5625 0.390625 1.40625q0 0.828125 -0.484375 1.546875q-0.46875 0.71875 -1.375 1.125q-0.90625 0.390625 -2.046875 0.390625q-1.875 0 -2.875 -0.78125q-0.984375 -0.78125 -1.25 -2.328125zm15.558304 2.890625l0 -8.40625l-1.453125 0l0 -1.265625l1.453125 0l0 -1.03125q0 -0.96875 0.171875 -1.453125q0.234375 -0.640625 0.828125 -1.03125q0.59375 -0.390625 1.671875 -0.390625q0.6875 0 1.53125 0.15625l-0.25 1.4375q-0.5 -0.09375 -0.953125 -0.09375q-0.75 0 -1.0625 0.328125q-0.3125 0.3125 -0.3125 1.1875l0 0.890625l1.890625 0l0 1.265625l-1.890625 0l0 8.40625l-1.625 0zm4.777054 0l0 -9.671875l1.46875 0l0 1.46875q0.5625 -1.03125 1.03125 -1.359375q0.484375 -0.328125 1.0625 -0.328125q0.828125 0 1.6875 0.53125l-0.5625 1.515625q-0.609375 -0.359375 -1.203125 -0.359375q-0.546875 0 -0.96875 0.328125q-0.421875 0.328125 -0.609375 0.890625q-0.28125 0.875 -0.28125 1.921875l0 5.0625l-1.625 0zm5.618927 -4.84375q0 -2.6875 1.484375 -3.96875q1.25 -1.078125 3.046875 -1.078125q2.0 0 3.265625 1.3125q1.265625 1.296875 1.265625 3.609375q0 1.859375 -0.5625 2.9375q-0.5625 1.0625 -1.640625 1.65625q-1.0625 0.59375 -2.328125 0.59375q-2.03125 0 -3.28125 -1.296875q-1.25 -1.3125 -1.25 -3.765625zm1.6875 0q0 1.859375 0.796875 2.796875q0.8125 0.921875 2.046875 0.921875q1.21875 0 2.03125 -0.921875q0.8125 -0.9375 0.8125 -2.84375q0 -1.796875 -0.8125 -2.71875q-0.8125 -0.921875 -2.03125 -0.921875q-1.234375 0 -2.046875 0.921875q-0.796875 0.90625 -0.796875 2.765625zm9.297592 4.84375l0 -9.671875l1.46875 0l0 1.359375q0.453125 -0.71875 1.203125 -1.140625q0.765625 -0.4375 1.71875 -0.4375q1.078125 0 1.765625 0.453125q0.6875 0.4375 0.96875 1.234375q1.15625 -1.6875 2.984375 -1.6875q1.453125 0 2.21875 0.796875q0.78125 0.796875 0.78125 2.453125l0 6.640625l-1.640625 0l0 -6.09375q0 -0.984375 -0.15625 -1.40625q-0.15625 -0.4375 -0.578125 -0.703125q-0.421875 -0.265625 -0.984375 -0.265625q-1.015625 0 -1.6875 0.6875q-0.671875 0.671875 -0.671875 2.15625l0 5.625l-1.640625 0l0 -6.28125q0 -1.09375 -0.40625 -1.640625q-0.40625 -0.546875 -1.3125 -0.546875q-0.6875 0 -1.28125 0.359375q-0.59375 0.359375 -0.859375 1.0625q-0.25 0.703125 -0.25 2.03125l0 5.015625l-1.640625 0z" fill-rule="nonzero"/><path fill="#000000" d="m193.78802 352.07706l1.609375 0.15625q-0.34375 1.1875 -1.59375 2.265625q-1.234375 1.078125 -2.96875 1.078125q-1.0625 0 -1.96875 -0.5q-0.890625 -0.5 -1.359375 -1.4375q-0.46875 -0.953125 -0.46875 -2.15625q0 -1.59375 0.734375 -3.078125q0.734375 -1.484375 1.890625 -2.203125q1.171875 -0.734375 2.53125 -0.734375q1.734375 0 2.765625 1.078125q1.03125 1.0625 1.03125 2.921875q0 0.71875 -0.125 1.46875l-7.125 0q-0.046875 0.28125 -0.046875 0.5q0 1.359375 0.625 2.078125q0.625 0.71875 1.53125 0.71875q0.84375 0 1.65625 -0.546875q0.828125 -0.5625 1.28125 -1.609375zm-4.78125 -2.40625l5.421875 0q0.015625 -0.25 0.015625 -0.359375q0 -1.234375 -0.625 -1.890625q-0.625 -0.671875 -1.59375 -0.671875q-1.0625 0 -1.9375 0.734375q-0.859375 0.71875 -1.28125 2.1875z" fill-rule="nonzero"/><path fill="#000000" fill-opacity="0.0" d="m0.97637796 489.56168l143.1181 0l0 42.015778l-143.1181 0z" fill-rule="evenodd"/><path fill="#000000" d="m11.3982525 516.4817l0 -13.359375l1.8125 0l7.015625 10.484375l0 -10.484375l1.6875 0l0 13.359375l-1.8125 0l-7.015625 -10.5l0 10.5l-1.6875 0zm12.676071 -4.84375q0 -2.6875 1.484375 -3.96875q1.25 -1.078125 3.046875 -1.078125q2.0 0 3.265625 1.3125q1.2656269 1.296875 1.2656269 3.609375q0 1.859375 -0.5625 2.9375q-0.5625 1.0625 -1.6406269 1.65625q-1.0625 0.59375 -2.328125 0.59375q-2.03125 0 -3.28125 -1.296875q-1.25 -1.3125 -1.25 -3.765625zm1.6875 0q0 1.859375 0.796875 2.796875q0.8125 0.921875 2.046875 0.921875q1.21875 0 2.03125 -0.921875q0.8125 -0.9375 0.8125 -2.84375q0 -1.796875 -0.8125 -2.71875q-0.8125 -0.921875 -2.03125 -0.921875q-1.234375 0 -2.046875 0.921875q-0.796875 0.90625 -0.796875 2.765625zm11.985094 4.84375l-3.6875 -9.671875l1.734375 0l2.078125 5.796875q0.328125 0.9375 0.625 1.9375q0.203125 -0.765625 0.609375 -1.828125l2.140625 -5.90625l1.6875 0l-3.65625 9.671875l-1.53125 0zm13.265625 -3.109375l1.6875 0.203125q-0.40625 1.484375 -1.484375 2.3125q-1.078125 0.8125 -2.765625 0.8125q-2.125 0 -3.375 -1.296875q-1.234375 -1.3125 -1.234375 -3.671875q0 -2.453125 1.25 -3.796875q1.265625 -1.34375 3.265625 -1.34375q1.9375 0 3.15625 1.328125q1.234375 1.3125 1.234375 3.703125q0 0.15625 0 0.4375l-7.21875 0q0.09375 1.59375 0.90625 2.453125q0.8125 0.84375 2.015625 0.84375q0.90625 0 1.546875 -0.46875q0.640625 -0.484375 1.015625 -1.515625zm-5.390625 -2.65625l5.40625 0q-0.109375 -1.21875 -0.625 -1.828125q-0.78125 -0.953125 -2.03125 -0.953125q-1.125 0 -1.90625 0.765625q-0.765625 0.75 -0.84375 2.015625zm9.094467 5.765625l0 -13.359375l1.640625 0l0 13.359375l-1.640625 0zm9.375 0l0 -9.671875l1.46875 0l0 1.375q1.0625 -1.59375 3.078125 -1.59375q0.875 0 1.609375 0.3125q0.734375 0.3125 1.09375 0.828125q0.375 0.5 0.515625 1.203125q0.09375 0.453125 0.09375 1.59375l0 5.953125l-1.640625 0l0 -5.890625q0 -1.0 -0.203125 -1.484375q-0.1875 -0.5 -0.671875 -0.796875q-0.484375 -0.296875 -1.140625 -0.296875q-1.046875 0 -1.8125 0.671875q-0.75 0.65625 -0.75 2.515625l0 5.28125l-1.640625 0zm9.766342 -4.84375q0 -2.6875 1.484375 -3.96875q1.25 -1.078125 3.046875 -1.078125q2.0 0 3.265625 1.3125q1.265625 1.296875 1.265625 3.609375q0 1.859375 -0.5625 2.9375q-0.5625 1.0625 -1.640625 1.65625q-1.0625 0.59375 -2.328125 0.59375q-2.03125 0 -3.28125 -1.296875q-1.25 -1.3125 -1.25 -3.765625zm1.6875 0q0 1.859375 0.796875 2.796875q0.8125 0.921875 2.046875 0.921875q1.21875 0 2.03125 -0.921875q0.8125 -0.9375 0.8125 -2.84375q0 -1.796875 -0.8125 -2.71875q-0.8125 -0.921875 -2.03125 -0.921875q-1.234375 0 -2.046875 0.921875q-0.796875 0.90625 -0.796875 2.765625zm15.563217 4.84375l0 -1.21875q-0.90625 1.4375 -2.703125 1.4375q-1.15625 0 -2.125 -0.640625q-0.96875 -0.640625 -1.5 -1.78125q-0.53125 -1.140625 -0.53125 -2.625q0 -1.453125 0.484375 -2.625q0.484375 -1.1875 1.4375 -1.8125q0.96875 -0.625 2.171875 -0.625q0.875 0 1.546875 0.375q0.6875 0.359375 1.109375 0.953125l0 -4.796875l1.640625 0l0 13.359375l-1.53125 0zm-5.171875 -4.828125q0 1.859375 0.78125 2.78125q0.78125 0.921875 1.84375 0.921875q1.078125 0 1.828125 -0.875q0.75 -0.890625 0.75 -2.6875q0 -1.984375 -0.765625 -2.90625q-0.765625 -0.9375 -1.890625 -0.9375q-1.078125 0 -1.8125 0.890625q-0.734375 0.890625 -0.734375 2.8125zm15.906967 1.71875l1.6875 0.203125q-0.40625 1.484375 -1.484375 2.3125q-1.078125 0.8125 -2.765625 0.8125q-2.125 0 -3.375 -1.296875q-1.234375 -1.3125 -1.234375 -3.671875q0 -2.453125 1.25 -3.796875q1.265625 -1.34375 3.265625 -1.34375q1.9375 0 3.15625 1.328125q1.234375 1.3125 1.234375 3.703125q0 0.15625 0 0.4375l-7.21875 0q0.09375 1.59375 0.90625 2.453125q0.8125 0.84375 2.015625 0.84375q0.90625 0 1.546875 -0.46875q0.640625 -0.484375 1.015625 -1.515625zm-5.390625 -2.65625l5.40625 0q-0.109375 -1.21875 -0.625 -1.828125q-0.78125 -0.953125 -2.03125 -0.953125q-1.125 0 -1.90625 0.765625q-0.765625 0.75 -0.84375 2.015625zm8.485092 2.875l1.625 -0.25q0.125 0.96875 0.75 1.5q0.625 0.515625 1.75 0.515625q1.125 0 1.671875 -0.453125q0.546875 -0.46875 0.546875 -1.09375q0 -0.546875 -0.484375 -0.875q-0.328125 -0.21875 -1.671875 -0.546875q-1.8125 -0.46875 -2.515625 -0.796875q-0.6875 -0.328125 -1.046875 -0.90625q-0.359375 -0.59375 -0.359375 -1.3125q0 -0.640625 0.296875 -1.1875q0.296875 -0.5625 0.8125 -0.921875q0.375 -0.28125 1.03125 -0.46875q0.671875 -0.203125 1.421875 -0.203125q1.140625 0 2.0 0.328125q0.859375 0.328125 1.265625 0.890625q0.421875 0.5625 0.578125 1.5l-1.609375 0.21875q-0.109375 -0.75 -0.640625 -1.171875q-0.515625 -0.421875 -1.46875 -0.421875q-1.140625 0 -1.625 0.375q-0.46875 0.375 -0.46875 0.875q0 0.3125 0.1875 0.578125q0.203125 0.265625 0.640625 0.4375q0.234375 0.09375 1.4375 0.421875q1.75 0.453125 2.4375 0.75q0.6875 0.296875 1.078125 0.859375q0.390625 0.5625 0.390625 1.40625q0 0.828125 -0.484375 1.546875q-0.46875 0.71875 -1.375 1.125q-0.90625 0.390625 -2.046875 0.390625q-1.875 0 -2.875 -0.78125q-0.984375 -0.78125 -1.25 -2.328125z" fill-rule="nonzero"/><path fill="#000000" fill-opacity="0.0" d="m230.65617 530.48553l171.68504 0l0 42.01581l-171.68504 0z" fill-rule="evenodd"/><path fill="#000000" d="m241.07805 557.4056l0 -13.359375l1.8125 0l7.015625 10.484375l0 -10.484375l1.6875 0l0 13.359375l-1.8125 0l-7.015625 -10.5l0 10.5l-1.6875 0zm12.676071 -4.84375q0 -2.6875 1.484375 -3.96875q1.25 -1.078125 3.046875 -1.078125q2.0 0 3.265625 1.3125q1.265625 1.296875 1.265625 3.609375q0 1.859375 -0.5625 2.9375q-0.5625 1.0625 -1.640625 1.65625q-1.0625 0.59375 -2.328125 0.59375q-2.03125 0 -3.28125 -1.296875q-1.25 -1.3125 -1.25 -3.765625zm1.6875 0q0 1.859375 0.796875 2.796875q0.8125 0.921875 2.046875 0.921875q1.21875 0 2.03125 -0.921875q0.8125 -0.9375 0.8125 -2.84375q0 -1.796875 -0.8125 -2.71875q-0.8125 -0.921875 -2.03125 -0.921875q-1.234375 0 -2.046875 0.921875q-0.796875 0.90625 -0.796875 2.765625zm15.563202 4.84375l0 -1.21875q-0.90625 1.4375 -2.703125 1.4375q-1.15625 0 -2.125 -0.640625q-0.96875 -0.640625 -1.5 -1.78125q-0.53125 -1.140625 -0.53125 -2.625q0 -1.453125 0.484375 -2.625q0.484375 -1.1875 1.4375 -1.8125q0.96875 -0.625 2.171875 -0.625q0.875 0 1.546875 0.375q0.6875 0.359375 1.109375 0.953125l0 -4.796875l1.640625 0l0 13.359375l-1.53125 0zm-5.171875 -4.828125q0 1.859375 0.78125 2.78125q0.78125 0.921875 1.84375 0.921875q1.078125 0 1.828125 -0.875q0.75 -0.890625 0.75 -2.6875q0 -1.984375 -0.765625 -2.90625q-0.765625 -0.9375 -1.890625 -0.9375q-1.078125 0 -1.8125 0.890625q-0.734375 0.890625 -0.734375 2.8125zm15.906982 1.71875l1.6875 0.203125q-0.40625 1.484375 -1.484375 2.3125q-1.078125 0.8125 -2.765625 0.8125q-2.125 0 -3.375 -1.296875q-1.234375 -1.3125 -1.234375 -3.671875q0 -2.453125 1.25 -3.796875q1.265625 -1.34375 3.265625 -1.34375q1.9375 0 3.15625 1.328125q1.234375 1.3125 1.234375 3.703125q0 0.15625 0 0.4375l-7.21875 0q0.09375 1.59375 0.90625 2.453125q0.8125 0.84375 2.015625 0.84375q0.90625 0 1.546875 -0.46875q0.640625 -0.484375 1.015625 -1.515625zm-5.390625 -2.65625l5.40625 0q-0.109375 -1.21875 -0.625 -1.828125q-0.78125 -0.953125 -2.03125 -0.953125q-1.125 0 -1.90625 0.765625q-0.765625 0.75 -0.84375 2.015625zm8.485077 2.875l1.625 -0.25q0.125 0.96875 0.75 1.5q0.625 0.515625 1.75 0.515625q1.125 0 1.671875 -0.453125q0.546875 -0.46875 0.546875 -1.09375q0 -0.546875 -0.484375 -0.875q-0.328125 -0.21875 -1.671875 -0.546875q-1.8125 -0.46875 -2.515625 -0.796875q-0.6875 -0.328125 -1.046875 -0.90625q-0.359375 -0.59375 -0.359375 -1.3125q0 -0.640625 0.296875 -1.1875q0.296875 -0.5625 0.8125 -0.921875q0.375 -0.28125 1.03125 -0.46875q0.671875 -0.203125 1.421875 -0.203125q1.140625 0 2.0 0.328125q0.859375 0.328125 1.265625 0.890625q0.421875 0.5625 0.578125 1.5l-1.609375 0.21875q-0.109375 -0.75 -0.640625 -1.171875q-0.515625 -0.421875 -1.46875 -0.421875q-1.140625 0 -1.625 0.375q-0.46875 0.375 -0.46875 0.875q0 0.3125 0.1875 0.578125q0.203125 0.265625 0.640625 0.4375q0.234375 0.09375 1.4375 0.421875q1.75 0.453125 2.4375 0.75q0.6875 0.296875 1.078125 0.859375q0.390625 0.5625 0.390625 1.40625q0 0.828125 -0.484375 1.546875q-0.46875 0.71875 -1.375 1.125q-0.90625 0.390625 -2.046875 0.390625q-1.875 0 -2.875 -0.78125q-0.984375 -0.78125 -1.25 -2.328125zm15.558319 2.890625l0 -8.40625l-1.453125 0l0 -1.265625l1.453125 0l0 -1.03125q0 -0.96875 0.171875 -1.453125q0.234375 -0.640625 0.828125 -1.03125q0.59375 -0.390625 1.671875 -0.390625q0.6875 0 1.53125 0.15625l-0.25 1.4375q-0.5 -0.09375 -0.953125 -0.09375q-0.75 0 -1.0625 0.328125q-0.3125 0.3125 -0.3125 1.1875l0 0.890625l1.890625 0l0 1.265625l-1.890625 0l0 8.40625l-1.625 0zm4.7770386 0l0 -9.671875l1.46875 0l0 1.46875q0.5625 -1.03125 1.03125 -1.359375q0.484375 -0.328125 1.0625 -0.328125q0.828125 0 1.6875 0.53125l-0.5625 1.515625q-0.609375 -0.359375 -1.203125 -0.359375q-0.546875 0 -0.96875 0.328125q-0.421875 0.328125 -0.609375 0.890625q-0.28125 0.875 -0.28125 1.921875l0 5.0625l-1.625 0zm5.618927 -4.84375q0 -2.6875 1.484375 -3.96875q1.25 -1.078125 3.046875 -1.078125q2.0 0 3.265625 1.3125q1.265625 1.296875 1.265625 3.609375q0 1.859375 -0.5625 2.9375q-0.5625 1.0625 -1.640625 1.65625q-1.0625 0.59375 -2.328125 0.59375q-2.03125 0 -3.28125 -1.296875q-1.25 -1.3125 -1.25 -3.765625zm1.6875 0q0 1.859375 0.796875 2.796875q0.8125 0.921875 2.046875 0.921875q1.21875 0 2.03125 -0.921875q0.8125 -0.9375 0.8125 -2.84375q0 -1.796875 -0.8125 -2.71875q-0.8125 -0.921875 -2.03125 -0.921875q-1.234375 0 -2.046875 0.921875q-0.796875 0.90625 -0.796875 2.765625zm9.297607 4.84375l0 -9.671875l1.46875 0l0 1.359375q0.453125 -0.71875 1.203125 -1.140625q0.765625 -0.4375 1.71875 -0.4375q1.078125 0 1.765625 0.453125q0.6875 0.4375 0.96875 1.234375q1.15625 -1.6875 2.984375 -1.6875q1.453125 0 2.21875 0.796875q0.78125 0.796875 0.78125 2.453125l0 6.640625l-1.640625 0l0 -6.09375q0 -0.984375 -0.15625 -1.40625q-0.15625 -0.4375 -0.578125 -0.703125q-0.421875 -0.265625 -0.984375 -0.265625q-1.015625 0 -1.6875 0.6875q-0.671875 0.671875 -0.671875 2.15625l0 5.625l-1.640625 0l0 -6.28125q0 -1.09375 -0.40625 -1.640625q-0.40625 -0.546875 -1.3125 -0.546875q-0.6875 0 -1.28125 0.359375q-0.59375 0.359375 -0.859375 1.0625q-0.25 0.703125 -0.25 2.03125l0 5.015625l-1.640625 0z" fill-rule="nonzero"/><path fill="#000000" d="m342.04474 557.4056l2.796875 -13.359375l1.78125 0l-1.15625 5.546875l6.921875 0l1.15625 -5.546875l1.78125 0l-2.78125 13.359375l-1.796875 0l1.3125 -6.296875l-6.90625 0l-1.328125 6.296875l-1.78125 0zm16.519836 0.21875l-2.25 -13.796875l1.28125 0l2.234375 13.796875l-1.265625 0zm9.073914 -3.5l1.609375 0.15625q-0.34375 1.1875 -1.59375 2.265625q-1.234375 1.078125 -2.96875 1.078125q-1.0625 0 -1.96875 -0.5q-0.890625 -0.5 -1.359375 -1.4375q-0.46875 -0.953125 -0.46875 -2.15625q0 -1.59375 0.734375 -3.078125q0.734375 -1.484375 1.890625 -2.203125q1.171875 -0.734375 2.53125 -0.734375q1.734375 0 2.765625 1.078125q1.03125 1.0625 1.03125 2.921875q0 0.71875 -0.125 1.46875l-7.125 0q-0.046875 0.28125 -0.046875 0.5q0 1.359375 0.625 2.078125q0.625 0.71875 1.53125 0.71875q0.84375 0 1.65625 -0.546875q0.828125 -0.5625 1.28125 -1.609375zm-4.78125 -2.40625l5.421875 0q0.015625 -0.25 0.015625 -0.359375q0 -1.234375 -0.625 -1.890625q-0.625 -0.671875 -1.59375 -0.671875q-1.0625 0 -1.9375 0.734375q-0.859375 0.71875 -1.28125 2.1875z" fill-rule="nonzero"/></g></svg>