<svg version="1.1" viewBox="0.0 0.0 961.490813648294 525.98687664042" fill="none" stroke="none" stroke-linecap="square" stroke-miterlimit="10" xmlns:xlink="http://www.w3.org/1999/xlink" xmlns="http://www.w3.org/2000/svg"><clipPath id="p.0"><path d="m0 0l961.4908 0l0 525.9869l-961.4908 0l0 -525.9869z" clip-rule="nonzero"/></clipPath><g clip-path="url(#p.0)"><path fill="#000000" fill-opacity="0.0" d="m0 0l961.4908 0l0 525.9869l-961.4908 0z" fill-rule="evenodd"/><path fill="#cfe2f3" fill-opacity="0.478" d="m50.892433 227.77568l0 0c-26.70101 -16.594635 -20.905388 -74.1983 12.944885 -128.6614l0 0c33.850273 -54.463108 82.936775 -85.16157 109.637794 -68.56693l0 0c26.701004 16.594635 20.905396 74.19831 -12.944885 128.6614l0 0c-33.850273 54.463104 -82.93678 85.16156 -109.637794 68.566925z" fill-rule="evenodd"/><path stroke="#6fa8dc" stroke-width="1.0" stroke-linejoin="round" stroke-linecap="butt" d="m50.892433 227.77568l0 0c-26.70101 -16.594635 -20.905388 -74.1983 12.944885 -128.6614l0 0c33.850273 -54.463108 82.936775 -85.16157 109.637794 -68.56693l0 0c26.701004 16.594635 20.905396 74.19831 -12.944885 128.6614l0 0c-33.850273 54.463104 -82.93678 85.16156 -109.637794 68.566925z" fill-rule="evenodd"/><path fill="#cfe2f3" fill-opacity="0.478" d="m198.86258 76.95096l0 0c8.888748 -30.153881 70.299774 -38.621693 137.16534 -18.913387l0 0c66.8656 19.708302 113.86514 60.12959 104.97638 90.28346l0 0c-8.888733 30.153885 -70.29974 38.62169 -137.16534 18.913391l0 0c-66.8656 -19.708298 -113.86511 -60.129585 -104.97638 -90.28346z" fill-rule="evenodd"/><path stroke="#6fa8dc" stroke-width="1.0" stroke-linejoin="round" stroke-linecap="butt" d="m198.86258 76.95096l0 0c8.888748 -30.153881 70.299774 -38.621693 137.16534 -18.913387l0 0c66.8656 19.708302 113.86514 60.12959 104.97638 90.28346l0 0c-8.888733 30.153885 -70.29974 38.62169 -137.16534 18.913391l0 0c-66.8656 -19.708298 -113.86511 -60.129585 -104.97638 -90.28346z" fill-rule="evenodd"/><path fill="#d9d9d9" d="m231.24818 113.52479l0 0c0 -8.192947 6.6417084 -14.8346405 14.834656 -14.8346405l0 0c3.9343872 0 7.7076416 1.5629272 10.48967 4.344963c2.7820435 2.7820358 4.3449707 6.55529 4.3449707 10.489677l0 0c0 8.192955 -6.641693 14.834648 -14.8346405 14.834648l0 0c-8.192947 0 -14.834656 -6.641693 -14.834656 -14.834648z" fill-rule="evenodd"/><path stroke="#000000" stroke-width="1.0" stroke-linejoin="round" stroke-linecap="butt" d="m231.24818 113.52479l0 0c0 -8.192947 6.6417084 -14.8346405 14.834656 -14.8346405l0 0c3.9343872 0 7.7076416 1.5629272 10.48967 4.344963c2.7820435 2.7820358 4.3449707 6.55529 4.3449707 10.489677l0 0c0 8.192955 -6.641693 14.834648 -14.8346405 14.834648l0 0c-8.192947 0 -14.834656 -6.641693 -14.834656 -14.834648z" fill-rule="evenodd"/><path fill="#d9d9d9" d="m124.59794 102.028435l0 0c0 -8.192947 6.6417007 -14.834648 14.834648 -14.834648l0 0c3.9343872 0 7.7076416 1.5629349 10.48967 4.3449707c2.7820435 2.7820358 4.3449707 6.5552826 4.3449707 10.489677l0 0c0 8.192947 -6.641693 14.834648 -14.8346405 14.834648l0 0c-8.192947 0 -14.834648 -6.6417007 -14.834648 -14.834648z" fill-rule="evenodd"/><path stroke="#000000" stroke-width="1.0" stroke-linejoin="round" stroke-linecap="butt" d="m124.59794 102.028435l0 0c0 -8.192947 6.6417007 -14.834648 14.834648 -14.834648l0 0c3.9343872 0 7.7076416 1.5629349 10.48967 4.3449707c2.7820435 2.7820358 4.3449707 6.5552826 4.3449707 10.489677l0 0c0 8.192947 -6.641693 14.834648 -14.8346405 14.834648l0 0c-8.192947 0 -14.834648 -6.6417007 -14.834648 -14.834648z" fill-rule="evenodd"/><path fill="#d9d9d9" d="m347.45126 153.45157l0 0c0 -8.192947 6.641693 -14.8346405 14.834656 -14.8346405l0 0c3.9343872 0 7.7076416 1.5629272 10.489685 4.3449707c2.782013 2.7820282 4.34494 6.5552826 4.34494 10.48967l0 0c0 8.192963 -6.641693 14.834656 -14.834625 14.834656l0 0c-8.192963 0 -14.834656 -6.641693 -14.834656 -14.834656z" fill-rule="evenodd"/><path stroke="#000000" stroke-width="1.0" stroke-linejoin="round" stroke-linecap="butt" d="m347.45126 153.45157l0 0c0 -8.192947 6.641693 -14.8346405 14.834656 -14.8346405l0 0c3.9343872 0 7.7076416 1.5629272 10.489685 4.3449707c2.782013 2.7820282 4.34494 6.5552826 4.34494 10.48967l0 0c0 8.192963 -6.641693 14.834656 -14.834625 14.834656l0 0c-8.192963 0 -14.834656 -6.641693 -14.834656 -14.834656z" fill-rule="evenodd"/><path fill="#d9d9d9" d="m334.72726 88.059296l0 0c0 -8.192947 6.641693 -14.8346405 14.834656 -14.8346405l0 0c3.9343872 0 7.7076416 1.5629272 10.489685 4.344963c2.782013 2.7820358 4.34494 6.55529 4.34494 10.489677l0 0c0 8.192955 -6.641693 14.834648 -14.834625 14.834648l0 0c-8.192963 0 -14.834656 -6.641693 -14.834656 -14.834648z" fill-rule="evenodd"/><path stroke="#000000" stroke-width="1.0" stroke-linejoin="round" stroke-linecap="butt" d="m334.72726 88.059296l0 0c0 -8.192947 6.641693 -14.8346405 14.834656 -14.8346405l0 0c3.9343872 0 7.7076416 1.5629272 10.489685 4.344963c2.782013 2.7820358 4.34494 6.55529 4.34494 10.489677l0 0c0 8.192955 -6.641693 14.834648 -14.834625 14.834648l0 0c-8.192963 0 -14.834656 -6.641693 -14.834656 -14.834648z" fill-rule="evenodd"/><path fill="#d9d9d9" d="m98.71344 173.47607l0 0c0 -8.192947 6.641693 -14.8346405 14.8346405 -14.8346405l0 0c3.9343948 0 7.7076416 1.5629272 10.489677 4.3449707c2.7820358 2.7820282 4.344963 6.5552826 4.344963 10.48967l0 0c0 8.192947 -6.641693 14.834656 -14.8346405 14.834656l0 0c-8.192947 0 -14.8346405 -6.6417084 -14.8346405 -14.834656z" fill-rule="evenodd"/><path stroke="#000000" stroke-width="1.0" stroke-linejoin="round" stroke-linecap="butt" d="m98.71344 173.47607l0 0c0 -8.192947 6.641693 -14.8346405 14.8346405 -14.8346405l0 0c3.9343948 0 7.7076416 1.5629272 10.489677 4.3449707c2.7820358 2.7820282 4.344963 6.5552826 4.344963 10.48967l0 0c0 8.192947 -6.641693 14.834656 -14.8346405 14.834656l0 0c-8.192947 0 -14.8346405 -6.6417084 -14.8346405 -14.834656z" fill-rule="evenodd"/><path fill="#cfe2f3" fill-opacity="0.478" d="m520.8689 170.04346l0 0c-13.150482 -42.591156 36.02771 -95.59782 109.84253 -118.3937l0 0c73.81476 -22.795877 144.31409 -6.7486343 157.46454 35.84252l0 0c13.150452 42.591156 -36.02771 95.597824 -109.84253 118.39371l0 0c-73.81482 22.795868 -144.31409 6.7486267 -157.46454 -35.84253z" fill-rule="evenodd"/><path stroke="#6fa8dc" stroke-width="1.0" stroke-linejoin="round" stroke-linecap="butt" d="m520.8689 170.04346l0 0c-13.150482 -42.591156 36.02771 -95.59782 109.84253 -118.3937l0 0c73.81476 -22.795877 144.31409 -6.7486343 157.46454 35.84252l0 0c13.150452 42.591156 -36.02771 95.597824 -109.84253 118.39371l0 0c-73.81482 22.795868 -144.31409 6.7486267 -157.46454 -35.84253z" fill-rule="evenodd"/><path fill="#cfe2f3" fill-opacity="0.478" d="m702.8626 76.95096l0 0c8.888733 -30.153881 70.29974 -38.621693 137.16534 -18.913387l0 0c66.8656 19.708302 113.86511 60.12959 104.97638 90.28346l0 0c-8.888733 30.153885 -70.299805 38.62169 -137.1654 18.913391l0 0c-66.86554 -19.708298 -113.86511 -60.129585 -104.97632 -90.28346z" fill-rule="evenodd"/><path stroke="#6fa8dc" stroke-width="1.0" stroke-linejoin="round" stroke-linecap="butt" d="m702.8626 76.95096l0 0c8.888733 -30.153881 70.29974 -38.621693 137.16534 -18.913387l0 0c66.8656 19.708302 113.86511 60.12959 104.97638 90.28346l0 0c-8.888733 30.153885 -70.299805 38.62169 -137.1654 18.913391l0 0c-66.86554 -19.708298 -113.86511 -60.129585 -104.97632 -90.28346z" fill-rule="evenodd"/><path fill="#ffd966" d="m735.24817 113.52479l0 0c0 -8.192947 6.6417236 -14.8346405 14.834656 -14.8346405l0 0c3.9343872 0 7.7076416 1.5629272 10.489685 4.344963c2.7820435 2.7820358 4.3449707 6.55529 4.3449707 10.489677l0 0c0 8.192955 -6.6417236 14.834648 -14.834656 14.834648l0 0c-8.192932 0 -14.834656 -6.641693 -14.834656 -14.834648z" fill-rule="evenodd"/><path stroke="#000000" stroke-width="1.0" stroke-linejoin="round" stroke-linecap="butt" d="m735.24817 113.52479l0 0c0 -8.192947 6.6417236 -14.8346405 14.834656 -14.8346405l0 0c3.9343872 0 7.7076416 1.5629272 10.489685 4.344963c2.7820435 2.7820358 4.3449707 6.55529 4.3449707 10.489677l0 0c0 8.192955 -6.6417236 14.834648 -14.834656 14.834648l0 0c-8.192932 0 -14.834656 -6.641693 -14.834656 -14.834648z" fill-rule="evenodd"/><path fill="#d9d9d9" d="m628.59796 102.028435l0 0c0 -8.192947 6.6416626 -14.834648 14.834595 -14.834648l0 0c3.9344482 0 7.7076416 1.5629349 10.489685 4.3449707c2.7820435 2.7820358 4.3449707 6.5552826 4.3449707 10.489677l0 0c0 8.192947 -6.6416626 14.834648 -14.834656 14.834648l0 0c-8.192932 0 -14.834595 -6.6417007 -14.834595 -14.834648z" fill-rule="evenodd"/><path stroke="#000000" stroke-width="1.0" stroke-linejoin="round" stroke-linecap="butt" d="m628.59796 102.028435l0 0c0 -8.192947 6.6416626 -14.834648 14.834595 -14.834648l0 0c3.9344482 0 7.7076416 1.5629349 10.489685 4.3449707c2.7820435 2.7820358 4.3449707 6.5552826 4.3449707 10.489677l0 0c0 8.192947 -6.6416626 14.834648 -14.834656 14.834648l0 0c-8.192932 0 -14.834595 -6.6417007 -14.834595 -14.834648z" fill-rule="evenodd"/><path fill="#d9d9d9" d="m851.4513 153.45157l0 0c0 -8.192947 6.6416626 -14.8346405 14.834595 -14.8346405l0 0c3.9343872 0 7.7076416 1.5629272 10.489685 4.3449707c2.7820435 2.7820282 4.3449707 6.5552826 4.3449707 10.48967l0 0c0 8.192963 -6.6416626 14.834656 -14.834656 14.834656l0 0c-8.192932 0 -14.834595 -6.641693 -14.834595 -14.834656z" fill-rule="evenodd"/><path stroke="#000000" stroke-width="1.0" stroke-linejoin="round" stroke-linecap="butt" d="m851.4513 153.45157l0 0c0 -8.192947 6.6416626 -14.8346405 14.834595 -14.8346405l0 0c3.9343872 0 7.7076416 1.5629272 10.489685 4.3449707c2.7820435 2.7820282 4.3449707 6.5552826 4.3449707 10.48967l0 0c0 8.192963 -6.6416626 14.834656 -14.834656 14.834656l0 0c-8.192932 0 -14.834595 -6.641693 -14.834595 -14.834656z" fill-rule="evenodd"/><path fill="#d9d9d9" d="m838.7273 88.059296l0 0c0 -8.192947 6.6416626 -14.8346405 14.834595 -14.8346405l0 0c3.9343872 0 7.7076416 1.5629272 10.489685 4.344963c2.7820435 2.7820358 4.3449707 6.55529 4.3449707 10.489677l0 0c0 8.192955 -6.6416626 14.834648 -14.834656 14.834648l0 0c-8.192932 0 -14.834595 -6.641693 -14.834595 -14.834648z" fill-rule="evenodd"/><path stroke="#000000" stroke-width="1.0" stroke-linejoin="round" stroke-linecap="butt" d="m838.7273 88.059296l0 0c0 -8.192947 6.6416626 -14.8346405 14.834595 -14.8346405l0 0c3.9343872 0 7.7076416 1.5629272 10.489685 4.344963c2.7820435 2.7820358 4.3449707 6.55529 4.3449707 10.489677l0 0c0 8.192955 -6.6416626 14.834648 -14.834656 14.834648l0 0c-8.192932 0 -14.834595 -6.641693 -14.834595 -14.834648z" fill-rule="evenodd"/><path fill="#d9d9d9" d="m602.71344 173.47607l0 0c0 -8.192947 6.6417236 -14.8346405 14.834656 -14.8346405l0 0c3.9343872 0 7.7076416 1.5629272 10.489685 4.3449707c2.7820435 2.7820282 4.3449707 6.5552826 4.3449707 10.48967l0 0c0 8.192947 -6.6417236 14.834656 -14.834656 14.834656l0 0c-8.192932 0 -14.834656 -6.6417084 -14.834656 -14.834656z" fill-rule="evenodd"/><path stroke="#000000" stroke-width="1.0" stroke-linejoin="round" stroke-linecap="butt" d="m602.71344 173.47607l0 0c0 -8.192947 6.6417236 -14.8346405 14.834656 -14.8346405l0 0c3.9343872 0 7.7076416 1.5629272 10.489685 4.3449707c2.7820435 2.7820282 4.3449707 6.5552826 4.3449707 10.48967l0 0c0 8.192947 -6.6417236 14.834656 -14.834656 14.834656l0 0c-8.192932 0 -14.834656 -6.6417084 -14.834656 -14.834656z" fill-rule="evenodd"/><path fill="#cfe2f3" fill-opacity="0.478" d="m50.892433 507.7757l0 0c-26.70101 -16.594635 -20.905388 -74.19833 12.944885 -128.66144l0 0c33.850273 -54.463104 82.936775 -85.16156 109.637794 -68.566925l0 0c26.701004 16.594635 20.905396 74.19833 -12.944885 128.66144l0 0c-33.850273 54.463104 -82.93678 85.16153 -109.637794 68.566925z" fill-rule="evenodd"/><path stroke="#6fa8dc" stroke-width="1.0" stroke-linejoin="round" stroke-linecap="butt" d="m50.892433 507.7757l0 0c-26.70101 -16.594635 -20.905388 -74.19833 12.944885 -128.66144l0 0c33.850273 -54.463104 82.936775 -85.16156 109.637794 -68.566925l0 0c26.701004 16.594635 20.905396 74.19833 -12.944885 128.66144l0 0c-33.850273 54.463104 -82.93678 85.16153 -109.637794 68.566925z" fill-rule="evenodd"/><path fill="#cfe2f3" fill-opacity="0.478" d="m87.258385 338.0708l0 0c10.9848175 -37.27704 98.22936 -44.405243 194.86615 -15.921265l0 0c96.63678 28.483978 166.07141 81.79382 155.08661 119.07086l0 0c-10.984833 37.27704 -98.22937 44.405243 -194.86615 15.921265l0 0c-96.63678 -28.483978 -166.07143 -81.79382 -155.08661 -119.07086z" fill-rule="evenodd"/><path stroke="#6fa8dc" stroke-width="1.0" stroke-linejoin="round" stroke-linecap="butt" d="m87.258385 338.0708l0 0c10.9848175 -37.27704 98.22936 -44.405243 194.86615 -15.921265l0 0c96.63678 28.483978 166.07141 81.79382 155.08661 119.07086l0 0c-10.984833 37.27704 -98.22937 44.405243 -194.86615 15.921265l0 0c-96.63678 -28.483978 -166.07143 -81.79382 -155.08661 -119.07086z" fill-rule="evenodd"/><path fill="#d9d9d9" d="m231.24818 393.52478l0 0c0 -8.192932 6.6417084 -14.834625 14.834656 -14.834625l0 0c3.9343872 0 7.7076416 1.5629272 10.48967 4.3449707c2.7820435 2.782013 4.3449707 6.5552673 4.3449707 10.489655l0 0c0 8.192963 -6.641693 14.834656 -14.8346405 14.834656l0 0c-8.192947 0 -14.834656 -6.641693 -14.834656 -14.834656z" fill-rule="evenodd"/><path stroke="#000000" stroke-width="1.0" stroke-linejoin="round" stroke-linecap="butt" d="m231.24818 393.52478l0 0c0 -8.192932 6.6417084 -14.834625 14.834656 -14.834625l0 0c3.9343872 0 7.7076416 1.5629272 10.48967 4.3449707c2.7820435 2.782013 4.3449707 6.5552673 4.3449707 10.489655l0 0c0 8.192963 -6.641693 14.834656 -14.8346405 14.834656l0 0c-8.192947 0 -14.834656 -6.641693 -14.834656 -14.834656z" fill-rule="evenodd"/><path fill="#ffd966" d="m124.59794 382.02844l0 0c0 -8.192963 6.6417007 -14.834656 14.834648 -14.834656l0 0c3.9343872 0 7.7076416 1.5629272 10.48967 4.3449707c2.7820435 2.7820435 4.3449707 6.555298 4.3449707 10.489685l0 0c0 8.192932 -6.641693 14.834625 -14.8346405 14.834625l0 0c-8.192947 0 -14.834648 -6.641693 -14.834648 -14.834625z" fill-rule="evenodd"/><path stroke="#000000" stroke-width="1.0" stroke-linejoin="round" stroke-linecap="butt" d="m124.59794 382.02844l0 0c0 -8.192963 6.6417007 -14.834656 14.834648 -14.834656l0 0c3.9343872 0 7.7076416 1.5629272 10.48967 4.3449707c2.7820435 2.7820435 4.3449707 6.555298 4.3449707 10.489685l0 0c0 8.192932 -6.641693 14.834625 -14.8346405 14.834625l0 0c-8.192947 0 -14.834648 -6.641693 -14.834648 -14.834625z" fill-rule="evenodd"/><path fill="#d9d9d9" d="m347.45126 433.45157l0 0c0 -8.192932 6.641693 -14.834625 14.834656 -14.834625l0 0c3.9343872 0 7.7076416 1.5629272 10.489685 4.34494c2.782013 2.7820435 4.34494 6.555298 4.34494 10.489685l0 0c0 8.192963 -6.641693 14.834656 -14.834625 14.834656l0 0c-8.192963 0 -14.834656 -6.641693 -14.834656 -14.834656z" fill-rule="evenodd"/><path stroke="#000000" stroke-width="1.0" stroke-linejoin="round" stroke-linecap="butt" d="m347.45126 433.45157l0 0c0 -8.192932 6.641693 -14.834625 14.834656 -14.834625l0 0c3.9343872 0 7.7076416 1.5629272 10.489685 4.34494c2.782013 2.7820435 4.34494 6.555298 4.34494 10.489685l0 0c0 8.192963 -6.641693 14.834656 -14.834625 14.834656l0 0c-8.192963 0 -14.834656 -6.641693 -14.834656 -14.834656z" fill-rule="evenodd"/><path fill="#d9d9d9" d="m334.72726 368.0593l0 0c0 -8.192932 6.641693 -14.834656 14.834656 -14.834656l0 0c3.9343872 0 7.7076416 1.5629578 10.489685 4.3449707c2.782013 2.7820435 4.34494 6.555298 4.34494 10.489685l0 0c0 8.192963 -6.641693 14.834656 -14.834625 14.834656l0 0c-8.192963 0 -14.834656 -6.641693 -14.834656 -14.834656z" fill-rule="evenodd"/><path stroke="#000000" stroke-width="1.0" stroke-linejoin="round" stroke-linecap="butt" d="m334.72726 368.0593l0 0c0 -8.192932 6.641693 -14.834656 14.834656 -14.834656l0 0c3.9343872 0 7.7076416 1.5629578 10.489685 4.3449707c2.782013 2.7820435 4.34494 6.555298 4.34494 10.489685l0 0c0 8.192963 -6.641693 14.834656 -14.834625 14.834656l0 0c-8.192963 0 -14.834656 -6.641693 -14.834656 -14.834656z" fill-rule="evenodd"/><path fill="#d9d9d9" d="m98.71344 453.47607l0 0c0 -8.192932 6.641693 -14.834656 14.8346405 -14.834656l0 0c3.9343948 0 7.7076416 1.5629578 10.489677 4.3449707c2.7820358 2.7820435 4.344963 6.555298 4.344963 10.489685l0 0c0 8.192963 -6.641693 14.834656 -14.8346405 14.834656l0 0c-8.192947 0 -14.8346405 -6.641693 -14.8346405 -14.834656z" fill-rule="evenodd"/><path stroke="#000000" stroke-width="1.0" stroke-linejoin="round" stroke-linecap="butt" d="m98.71344 453.47607l0 0c0 -8.192932 6.641693 -14.834656 14.8346405 -14.834656l0 0c3.9343948 0 7.7076416 1.5629578 10.489677 4.3449707c2.7820358 2.7820435 4.344963 6.555298 4.344963 10.489685l0 0c0 8.192963 -6.641693 14.834656 -14.8346405 14.834656l0 0c-8.192947 0 -14.8346405 -6.641693 -14.8346405 -14.834656z" fill-rule="evenodd"/><path fill="#cfe2f3" fill-opacity="0.478" d="m540.2572 476.08087l0 0c-18.84729 -38.868683 19.247314 -96.26083 85.08661 -128.189l0 0c65.839294 -31.928131 134.49133 -26.301727 153.33856 12.566925l0 0c18.84729 38.868683 -19.247314 96.26083 -85.08661 128.189l0 0c-65.839294 31.928131 -134.49127 26.301727 -153.33856 -12.566925z" fill-rule="evenodd"/><path stroke="#6fa8dc" stroke-width="1.0" stroke-linejoin="round" stroke-linecap="butt" d="m540.2572 476.08087l0 0c-18.84729 -38.868683 19.247314 -96.26083 85.08661 -128.189l0 0c65.839294 -31.928131 134.49133 -26.301727 153.33856 12.566925l0 0c18.84729 38.868683 -19.247314 96.26083 -85.08661 128.189l0 0c-65.839294 31.928131 -134.49127 26.301727 -153.33856 -12.566925z" fill-rule="evenodd"/><path fill="#cfe2f3" fill-opacity="0.478" d="m594.4071 347.2756c6.7404785 -33.71109 91.319885 -45.224792 188.91339 -25.716522l0 0c97.593506 19.50827 171.24438 62.651093 164.5039 96.36221l0 0c-6.7404785 33.71109 -91.319885 45.224792 -188.91339 25.716522l0 0c-97.593445 -19.50827 -171.24438 -62.651093 -164.5039 -96.36221z" fill-rule="evenodd"/><path stroke="#6fa8dc" stroke-width="1.0" stroke-linejoin="round" stroke-linecap="butt" d="m594.4071 347.2756c6.7404785 -33.71109 91.319885 -45.224792 188.91339 -25.716522l0 0c97.593506 19.50827 171.24438 62.651093 164.5039 96.36221l0 0c-6.7404785 33.71109 -91.319885 45.224792 -188.91339 25.716522l0 0c-97.593445 -19.50827 -171.24438 -62.651093 -164.5039 -96.36221z" fill-rule="evenodd"/><path fill="#ffd966" d="m735.24817 393.52478l0 0c0 -8.192932 6.6417236 -14.834625 14.834656 -14.834625l0 0c3.9343872 0 7.7076416 1.5629272 10.489685 4.3449707c2.7820435 2.782013 4.3449707 6.5552673 4.3449707 10.489655l0 0c0 8.192963 -6.6417236 14.834656 -14.834656 14.834656l0 0c-8.192932 0 -14.834656 -6.641693 -14.834656 -14.834656z" fill-rule="evenodd"/><path stroke="#000000" stroke-width="1.0" stroke-linejoin="round" stroke-linecap="butt" d="m735.24817 393.52478l0 0c0 -8.192932 6.6417236 -14.834625 14.834656 -14.834625l0 0c3.9343872 0 7.7076416 1.5629272 10.489685 4.3449707c2.7820435 2.782013 4.3449707 6.5552673 4.3449707 10.489655l0 0c0 8.192963 -6.6417236 14.834656 -14.834656 14.834656l0 0c-8.192932 0 -14.834656 -6.641693 -14.834656 -14.834656z" fill-rule="evenodd"/><path fill="#ffd966" d="m628.59796 382.02844l0 0c0 -8.192963 6.6416626 -14.834656 14.834595 -14.834656l0 0c3.9344482 0 7.7076416 1.5629272 10.489685 4.3449707c2.7820435 2.7820435 4.3449707 6.555298 4.3449707 10.489685l0 0c0 8.192932 -6.6416626 14.834625 -14.834656 14.834625l0 0c-8.192932 0 -14.834595 -6.641693 -14.834595 -14.834625z" fill-rule="evenodd"/><path stroke="#000000" stroke-width="1.0" stroke-linejoin="round" stroke-linecap="butt" d="m628.59796 382.02844l0 0c0 -8.192963 6.6416626 -14.834656 14.834595 -14.834656l0 0c3.9344482 0 7.7076416 1.5629272 10.489685 4.3449707c2.7820435 2.7820435 4.3449707 6.555298 4.3449707 10.489685l0 0c0 8.192932 -6.6416626 14.834625 -14.834656 14.834625l0 0c-8.192932 0 -14.834595 -6.641693 -14.834595 -14.834625z" fill-rule="evenodd"/><path fill="#d9d9d9" d="m851.4513 433.45157l0 0c0 -8.192932 6.6416626 -14.834625 14.834595 -14.834625l0 0c3.9343872 0 7.7076416 1.5629272 10.489685 4.34494c2.7820435 2.7820435 4.3449707 6.555298 4.3449707 10.489685l0 0c0 8.192963 -6.6416626 14.834656 -14.834656 14.834656l0 0c-8.192932 0 -14.834595 -6.641693 -14.834595 -14.834656z" fill-rule="evenodd"/><path stroke="#000000" stroke-width="1.0" stroke-linejoin="round" stroke-linecap="butt" d="m851.4513 433.45157l0 0c0 -8.192932 6.6416626 -14.834625 14.834595 -14.834625l0 0c3.9343872 0 7.7076416 1.5629272 10.489685 4.34494c2.7820435 2.7820435 4.3449707 6.555298 4.3449707 10.489685l0 0c0 8.192963 -6.6416626 14.834656 -14.834656 14.834656l0 0c-8.192932 0 -14.834595 -6.641693 -14.834595 -14.834656z" fill-rule="evenodd"/><path fill="#d9d9d9" d="m838.7273 368.0593l0 0c0 -8.192932 6.6416626 -14.834656 14.834595 -14.834656l0 0c3.9343872 0 7.7076416 1.5629578 10.489685 4.3449707c2.7820435 2.7820435 4.3449707 6.555298 4.3449707 10.489685l0 0c0 8.192963 -6.6416626 14.834656 -14.834656 14.834656l0 0c-8.192932 0 -14.834595 -6.641693 -14.834595 -14.834656z" fill-rule="evenodd"/><path stroke="#000000" stroke-width="1.0" stroke-linejoin="round" stroke-linecap="butt" d="m838.7273 368.0593l0 0c0 -8.192932 6.6416626 -14.834656 14.834595 -14.834656l0 0c3.9343872 0 7.7076416 1.5629578 10.489685 4.3449707c2.7820435 2.7820435 4.3449707 6.555298 4.3449707 10.489685l0 0c0 8.192963 -6.6416626 14.834656 -14.834656 14.834656l0 0c-8.192932 0 -14.834595 -6.641693 -14.834595 -14.834656z" fill-rule="evenodd"/><path fill="#d9d9d9" d="m602.71344 453.47607l0 0c0 -8.192932 6.6417236 -14.834656 14.834656 -14.834656l0 0c3.9343872 0 7.7076416 1.5629578 10.489685 4.3449707c2.7820435 2.7820435 4.3449707 6.555298 4.3449707 10.489685l0 0c0 8.192963 -6.6417236 14.834656 -14.834656 14.834656l0 0c-8.192932 0 -14.834656 -6.641693 -14.834656 -14.834656z" fill-rule="evenodd"/><path stroke="#000000" stroke-width="1.0" stroke-linejoin="round" stroke-linecap="butt" d="m602.71344 453.47607l0 0c0 -8.192932 6.6417236 -14.834656 14.834656 -14.834656l0 0c3.9343872 0 7.7076416 1.5629578 10.489685 4.3449707c2.7820435 2.7820435 4.3449707 6.555298 4.3449707 10.489685l0 0c0 8.192963 -6.6417236 14.834656 -14.834656 14.834656l0 0c-8.192932 0 -14.834656 -6.641693 -14.834656 -14.834656z" fill-rule="evenodd"/></g></svg>