<svg version="1.1" viewBox="0.0 0.0 745.3490813648294 636.7139107611548" fill="none" stroke="none" stroke-linecap="square" stroke-miterlimit="10" xmlns:xlink="http://www.w3.org/1999/xlink" xmlns="http://www.w3.org/2000/svg"><clipPath id="p.0"><path d="m0 0l745.34906 0l0 636.7139l-745.34906 0l0 -636.7139z" clip-rule="nonzero"/></clipPath><g clip-path="url(#p.0)"><path fill="#000000" fill-opacity="0.0" d="m0 0l745.34906 0l0 636.7139l-745.34906 0z" fill-rule="evenodd"/><path fill="#d0e2f3" fill-opacity="0.4025" d="m21.855927 253.7083l0 0c0 -90.52251 57.709435 -163.9055 128.89764 -163.9055l0 0c34.185776 0 66.97139 17.268562 91.144394 48.006805c24.172989 30.73825 37.75325 72.42825 37.75325 115.8987l0 0c0 90.52251 -57.709457 163.9055 -128.89764 163.9055l0 0c-71.18821 0 -128.89764 -73.382996 -128.89764 -163.9055z" fill-rule="evenodd"/><path stroke="#9fc5e8" stroke-width="1.0" stroke-linejoin="round" stroke-linecap="butt" d="m21.855927 253.7083l0 0c0 -90.52251 57.709435 -163.9055 128.89764 -163.9055l0 0c34.185776 0 66.97139 17.268562 91.144394 48.006805c24.172989 30.73825 37.75325 72.42825 37.75325 115.8987l0 0c0 90.52251 -57.709457 163.9055 -128.89764 163.9055l0 0c-71.18821 0 -128.89764 -73.382996 -128.89764 -163.9055z" fill-rule="evenodd"/><path fill="#d0e2f3" fill-opacity="0.4025" d="m309.57782 17.91832l0 0c59.098816 -39.26005 181.0607 40.376858 272.40942 177.87402l0 0c91.348816 137.49715 117.49255 280.78717 58.393738 320.04724l0 0c-59.098816 39.26001 -181.0607 -40.37686 -272.40945 -177.87402l0 0c-91.348755 -137.49718 -117.49252 -280.7872 -58.393707 -320.04724z" fill-rule="evenodd"/><path stroke="#9fc5e8" stroke-width="1.0" stroke-linejoin="round" stroke-linecap="butt" d="m309.57782 17.91832l0 0c59.098816 -39.26005 181.0607 40.376858 272.40942 177.87402l0 0c91.348816 137.49715 117.49255 280.78717 58.393738 320.04724l0 0c-59.098816 39.26001 -181.0607 -40.37686 -272.40945 -177.87402l0 0c-91.348755 -137.49718 -117.49252 -280.7872 -58.393707 -320.04724z" fill-rule="evenodd"/><path fill="#fff2cc" fill-opacity="0.4654" d="m97.59529 209.0066l0 0c-11.837158 -38.99913 62.892517 -96.16567 166.91338 -127.68504l0 0c104.020874 -31.519363 197.94238 -25.455822 209.77954 13.543312l0 0c11.837158 38.999123 -62.892517 96.16567 -166.91339 127.685036l0 0c-104.020874 31.519379 -197.94237 25.455826 -209.77953 -13.543304z" fill-rule="evenodd"/><path stroke="#ffe599" stroke-width="1.0" stroke-linejoin="round" stroke-linecap="butt" d="m97.59529 209.0066l0 0c-11.837158 -38.99913 62.892517 -96.16567 166.91338 -127.68504l0 0c104.020874 -31.519363 197.94238 -25.455822 209.77954 13.543312l0 0c11.837158 38.999123 -62.892517 96.16567 -166.91339 127.685036l0 0c-104.020874 31.519379 -197.94237 25.455826 -209.77953 -13.543304z" fill-rule="evenodd"/><path fill="#d0e2f3" fill-opacity="0.4025" d="m157.36513 558.9452l0 0c-20.578033 -67.87451 90.814926 -161.71844 248.80315 -209.60632l0 0c157.98822 -47.88788 302.7448 -31.685516 323.3228 36.188965l0 0c20.578064 67.87451 -90.81488 161.71844 -248.80313 209.60632l0 0c-157.98822 47.88788 -302.74478 31.685486 -323.3228 -36.188965z" fill-rule="evenodd"/><path stroke="#6fa8dc" stroke-width="1.0" stroke-linejoin="round" stroke-linecap="butt" d="m157.36513 558.9452l0 0c-20.578033 -67.87451 90.814926 -161.71844 248.80315 -209.60632l0 0c157.98822 -47.88788 302.7448 -31.685516 323.3228 36.188965l0 0c20.578064 67.87451 -90.81488 161.71844 -248.80313 209.60632l0 0c-157.98822 47.88788 -302.74478 31.685486 -323.3228 -36.188965z" fill-rule="evenodd"/><path fill="#d0e2f3" fill-opacity="0.4025" d="m16.530485 479.77762l0 0c-36.955242 -101.66388 2.3449917 -209.24951 87.779526 -240.29921l0 0c41.027115 -14.910599 87.423645 -9.816544 128.98288 14.16153c41.55925 23.978073 74.87688 64.87602 92.62343 113.69673l0 0c36.95523 101.66388 -2.3450012 209.24951 -87.77954 240.2992l0 0c-85.434525 31.049744 -184.65105 -26.194397 -221.6063 -127.858246z" fill-rule="evenodd"/><path stroke="#9fc5e8" stroke-width="1.0" stroke-linejoin="round" stroke-linecap="butt" d="m16.530485 479.77762l0 0c-36.955242 -101.66388 2.3449917 -209.24951 87.779526 -240.29921l0 0c41.027115 -14.910599 87.423645 -9.816544 128.98288 14.16153c41.55925 23.978073 74.87688 64.87602 92.62343 113.69673l0 0c36.95523 101.66388 -2.3450012 209.24951 -87.77954 240.2992l0 0c-85.434525 31.049744 -184.65105 -26.194397 -221.6063 -127.858246z" fill-rule="evenodd"/><path fill="#d0e2f3" fill-opacity="0.4025" d="m196.94348 492.9749l0 0c2.574417 -26.683624 76.88104 -41.32779 165.9685 -32.70868l0 0c89.08743 8.619141 159.2201 37.23767 156.64569 63.921265l0 0c-2.574463 26.683655 -76.8811 41.32782 -165.96854 32.70868l0 0c-89.08743 -8.619141 -159.2201 -37.23767 -156.64566 -63.921265z" fill-rule="evenodd"/><path stroke="#6fa8dc" stroke-width="1.0" stroke-linejoin="round" stroke-linecap="butt" d="m196.94348 492.9749l0 0c2.574417 -26.683624 76.88104 -41.32779 165.9685 -32.70868l0 0c89.08743 8.619141 159.2201 37.23767 156.64569 63.921265l0 0c-2.574463 26.683655 -76.8811 41.32782 -165.96854 32.70868l0 0c-89.08743 -8.619141 -159.2201 -37.23767 -156.64566 -63.921265z" fill-rule="evenodd"/><path fill="#d9d9d9" d="m173.02887 302.98688l0 0c0 -12.898254 10.456085 -23.35434 23.35434 -23.35434l0 0c6.193939 0 12.134216 2.4605408 16.513992 6.840332c4.3797913 4.3797913 6.840332 10.320068 6.840332 16.514008l0 0c0 12.898254 -10.456085 23.35434 -23.354324 23.35434l0 0c-12.898254 0 -23.35434 -10.456085 -23.35434 -23.35434z" fill-rule="evenodd"/><path stroke="#000000" stroke-width="1.0" stroke-linejoin="round" stroke-linecap="butt" d="m173.02887 302.98688l0 0c0 -12.898254 10.456085 -23.35434 23.35434 -23.35434l0 0c6.193939 0 12.134216 2.4605408 16.513992 6.840332c4.3797913 4.3797913 6.840332 10.320068 6.840332 16.514008l0 0c0 12.898254 -10.456085 23.35434 -23.354324 23.35434l0 0c-12.898254 0 -23.35434 -10.456085 -23.35434 -23.35434z" fill-rule="evenodd"/><path fill="#d9d9d9" d="m59.46194 290.6168l0 0c0 -12.898224 10.456089 -23.35431 23.354336 -23.35431l0 0c6.193947 0 12.134216 2.4605103 16.514 6.8403015c4.3797913 4.3797913 6.8403244 10.320068 6.8403244 16.514008l0 0c0 12.898254 -10.456085 23.35434 -23.354324 23.35434l0 0c-12.898247 0 -23.354336 -10.456085 -23.354336 -23.35434z" fill-rule="evenodd"/><path stroke="#000000" stroke-width="1.0" stroke-linejoin="round" stroke-linecap="butt" d="m59.46194 290.6168l0 0c0 -12.898224 10.456089 -23.35431 23.354336 -23.35431l0 0c6.193947 0 12.134216 2.4605103 16.514 6.8403015c4.3797913 4.3797913 6.8403244 10.320068 6.8403244 16.514008l0 0c0 12.898254 -10.456085 23.35434 -23.354324 23.35434l0 0c-12.898247 0 -23.354336 -10.456085 -23.354336 -23.35434z" fill-rule="evenodd"/><path fill="#d9d9d9" d="m192.28084 170.56955l0 0c0 -12.898239 10.456085 -23.354324 23.35434 -23.354324l0 0c6.193939 0 12.134216 2.4605408 16.513992 6.840317c4.3797913 4.3797913 6.840332 10.320053 6.840332 16.514008l0 0c0 12.898239 -10.456085 23.35434 -23.354324 23.35434l0 0c-12.898254 0 -23.35434 -10.4561 -23.35434 -23.35434z" fill-rule="evenodd"/><path stroke="#000000" stroke-width="1.0" stroke-linejoin="round" stroke-linecap="butt" d="m192.28084 170.56955l0 0c0 -12.898239 10.456085 -23.354324 23.35434 -23.354324l0 0c6.193939 0 12.134216 2.4605408 16.513992 6.840317c4.3797913 4.3797913 6.840332 10.320053 6.840332 16.514008l0 0c0 12.898239 -10.456085 23.35434 -23.354324 23.35434l0 0c-12.898254 0 -23.35434 -10.4561 -23.35434 -23.35434z" fill-rule="evenodd"/><path fill="#d9d9d9" d="m346.1942 99.94751l0 0c0 -12.898247 10.456116 -23.354332 23.35434 -23.354332l0 0c6.1939697 0 12.134216 2.4605331 16.514008 6.8403244c4.3797913 4.3797836 6.840332 10.320053 6.840332 16.514008l0 0c0 12.898239 -10.456085 23.354324 -23.35434 23.354324l0 0c-12.898224 0 -23.35434 -10.456085 -23.35434 -23.354324z" fill-rule="evenodd"/><path stroke="#000000" stroke-width="1.0" stroke-linejoin="round" stroke-linecap="butt" d="m346.1942 99.94751l0 0c0 -12.898247 10.456116 -23.354332 23.35434 -23.354332l0 0c6.1939697 0 12.134216 2.4605331 16.514008 6.8403244c4.3797913 4.3797836 6.840332 10.320053 6.840332 16.514008l0 0c0 12.898239 -10.456085 23.354324 -23.35434 23.354324l0 0c-12.898224 0 -23.35434 -10.456085 -23.35434 -23.354324z" fill-rule="evenodd"/><path fill="#d9d9d9" d="m407.13385 253.70866l0 0c0 -12.898239 10.456085 -23.35434 23.35434 -23.35434l0 0c6.193939 0 12.134216 2.4605408 16.514008 6.840332c4.3797913 4.3797913 6.840332 10.320053 6.840332 16.514008l0 0c0 12.898239 -10.456085 23.354324 -23.35434 23.354324l0 0c-12.898254 0 -23.35434 -10.456085 -23.35434 -23.354324z" fill-rule="evenodd"/><path stroke="#000000" stroke-width="1.0" stroke-linejoin="round" stroke-linecap="butt" d="m407.13385 253.70866l0 0c0 -12.898239 10.456085 -23.35434 23.35434 -23.35434l0 0c6.193939 0 12.134216 2.4605408 16.514008 6.840332c4.3797913 4.3797913 6.840332 10.320053 6.840332 16.514008l0 0c0 12.898239 -10.456085 23.354324 -23.35434 23.354324l0 0c-12.898254 0 -23.35434 -10.456085 -23.35434 -23.354324z" fill-rule="evenodd"/><path fill="#d9d9d9" d="m533.3517 280.28085l0 0c0 -12.898254 10.456116 -23.35434 23.35437 -23.35434l0 0c6.1939087 0 12.134216 2.4605408 16.513977 6.840332c4.379822 4.3797607 6.840332 10.320038 6.840332 16.514008l0 0c0 12.898224 -10.456116 23.35431 -23.35431 23.35431l0 0c-12.898254 0 -23.35437 -10.456085 -23.35437 -23.35431z" fill-rule="evenodd"/><path stroke="#000000" stroke-width="1.0" stroke-linejoin="round" stroke-linecap="butt" d="m533.3517 280.28085l0 0c0 -12.898254 10.456116 -23.35434 23.35437 -23.35434l0 0c6.1939087 0 12.134216 2.4605408 16.513977 6.840332c4.379822 4.3797607 6.840332 10.320038 6.840332 16.514008l0 0c0 12.898224 -10.456116 23.35431 -23.35431 23.35431l0 0c-12.898254 0 -23.35437 -10.456085 -23.35437 -23.35431z" fill-rule="evenodd"/><path fill="#d9d9d9" d="m486.64304 412.4042l0 0c0 -12.898254 10.456085 -23.35434 23.35434 -23.35434l0 0c6.1939697 0 12.134216 2.4605408 16.513977 6.840332c4.379822 4.3797913 6.840332 10.320038 6.840332 16.514008l0 0c0 12.898224 -10.456055 23.35434 -23.35431 23.35434l0 0c-12.898254 0 -23.35434 -10.456116 -23.35434 -23.35434z" fill-rule="evenodd"/><path stroke="#000000" stroke-width="1.0" stroke-linejoin="round" stroke-linecap="butt" d="m486.64304 412.4042l0 0c0 -12.898254 10.456085 -23.35434 23.35434 -23.35434l0 0c6.1939697 0 12.134216 2.4605408 16.513977 6.840332c4.379822 4.3797913 6.840332 10.320038 6.840332 16.514008l0 0c0 12.898224 -10.456055 23.35434 -23.35431 23.35434l0 0c-12.898254 0 -23.35434 -10.456116 -23.35434 -23.35434z" fill-rule="evenodd"/><path fill="#d9d9d9" d="m599.0971 365.69553l0 0c0 -12.898224 10.456116 -23.35431 23.35431 -23.35431l0 0c6.1939697 0 12.134216 2.4605408 16.514038 6.8403015c4.3797607 4.3797913 6.840332 10.320068 6.840332 16.514008l0 0c0 12.898254 -10.456116 23.35434 -23.35437 23.35434l0 0c-12.898193 0 -23.35431 -10.456085 -23.35431 -23.35434z" fill-rule="evenodd"/><path stroke="#000000" stroke-width="1.0" stroke-linejoin="round" stroke-linecap="butt" d="m599.0971 365.69553l0 0c0 -12.898224 10.456116 -23.35431 23.35431 -23.35431l0 0c6.1939697 0 12.134216 2.4605408 16.514038 6.8403015c4.3797607 4.3797913 6.840332 10.320068 6.840332 16.514008l0 0c0 12.898254 -10.456116 23.35434 -23.35437 23.35434l0 0c-12.898193 0 -23.35431 -10.456085 -23.35431 -23.35434z" fill-rule="evenodd"/><path fill="#d9d9d9" d="m402.34122 508.22308l0 0c0 -12.898224 10.456085 -23.35431 23.35431 -23.35431l0 0c6.1939697 0 12.134216 2.4605408 16.514008 6.840332c4.3797913 4.3797607 6.840332 10.320038 6.840332 16.513977l0 0c0 12.898254 -10.456085 23.35437 -23.35434 23.35437l0 0c-12.898224 0 -23.35431 -10.456116 -23.35431 -23.35437z" fill-rule="evenodd"/><path stroke="#000000" stroke-width="1.0" stroke-linejoin="round" stroke-linecap="butt" d="m402.34122 508.22308l0 0c0 -12.898224 10.456085 -23.35431 23.35431 -23.35431l0 0c6.1939697 0 12.134216 2.4605408 16.514008 6.840332c4.3797913 4.3797607 6.840332 10.320038 6.840332 16.513977l0 0c0 12.898254 -10.456085 23.35437 -23.35434 23.35437l0 0c-12.898224 0 -23.35431 -10.456116 -23.35431 -23.35437z" fill-rule="evenodd"/><path fill="#d9d9d9" d="m278.8609 502.07086l0 0c0 -12.898224 10.456085 -23.35434 23.35431 -23.35434l0 0c6.1939697 0 12.134247 2.4605408 16.514008 6.840332c4.3797913 4.3797913 6.840332 10.320068 6.840332 16.514008l0 0c0 12.898254 -10.456085 23.35431 -23.35434 23.35431l0 0c-12.898224 0 -23.35431 -10.456055 -23.35431 -23.35431z" fill-rule="evenodd"/><path stroke="#000000" stroke-width="1.0" stroke-linejoin="round" stroke-linecap="butt" d="m278.8609 502.07086l0 0c0 -12.898224 10.456085 -23.35434 23.35431 -23.35434l0 0c6.1939697 0 12.134247 2.4605408 16.514008 6.840332c4.3797913 4.3797913 6.840332 10.320068 6.840332 16.514008l0 0c0 12.898254 -10.456085 23.35431 -23.35434 23.35431l0 0c-12.898224 0 -23.35431 -10.456055 -23.35431 -23.35431z" fill-rule="evenodd"/><path fill="#d9d9d9" d="m45.02887 470.98688l0 0c0 -12.898254 10.456093 -23.35434 23.354332 -23.35434l0 0c6.1939545 0 12.134216 2.4605408 16.514008 6.840332c4.3797836 4.3797913 6.8403244 10.320068 6.8403244 16.514008l0 0c0 12.898254 -10.456093 23.35434 -23.354332 23.35434l0 0c-12.898239 0 -23.354332 -10.456085 -23.354332 -23.35434z" fill-rule="evenodd"/><path stroke="#000000" stroke-width="1.0" stroke-linejoin="round" stroke-linecap="butt" d="m45.02887 470.98688l0 0c0 -12.898254 10.456093 -23.35434 23.354332 -23.35434l0 0c6.1939545 0 12.134216 2.4605408 16.514008 6.840332c4.3797836 4.3797913 6.8403244 10.320068 6.8403244 16.514008l0 0c0 12.898254 -10.456093 23.35434 -23.354332 23.35434l0 0c-12.898239 0 -23.354332 -10.456085 -23.354332 -23.35434z" fill-rule="evenodd"/></g></svg>