<svg version="1.1" viewBox="0.0 0.0 439.3228346456693 207.82677165354332" fill="none" stroke="none" stroke-linecap="square" stroke-miterlimit="10" xmlns:xlink="http://www.w3.org/1999/xlink" xmlns="http://www.w3.org/2000/svg"><clipPath id="p.0"><path d="m0 0l439.32285 0l0 207.82677l-439.32285 0l0 -207.82677z" clip-rule="nonzero"/></clipPath><g clip-path="url(#p.0)"><path fill="#000000" fill-opacity="0.0" d="m0 0l439.32285 0l0 207.82677l-439.32285 0z" fill-rule="evenodd"/><path fill="#000000" fill-opacity="0.0" d="m106.37795 171.79002l61.921257 -94.23622" fill-rule="evenodd"/><path stroke="#000000" stroke-width="1.0" stroke-linejoin="round" stroke-linecap="butt" d="m106.37795 171.79002l61.921257 -94.23622" fill-rule="evenodd"/><path fill="#000000" fill-opacity="0.0" d="m46.010498 77.850395l56.661415 93.32284" fill-rule="evenodd"/><path stroke="#000000" stroke-width="1.0" stroke-linejoin="round" stroke-linecap="butt" d="m46.010498 77.850395l56.661415 93.32284" fill-rule="evenodd"/><path fill="#d9d9d9" d="m26.603674 77.49209l0 0c0 -10.636917 8.622927 -19.259842 19.259844 -19.259842l0 0c5.1080284 0 10.006844 2.0291557 13.618763 5.641079c3.6119232 3.6119194 5.641079 8.510738 5.641079 13.618763l0 0c0 10.636917 -8.622925 19.259842 -19.259842 19.259842l0 0c-10.636917 0 -19.259844 -8.622925 -19.259844 -19.259842z" fill-rule="evenodd"/><path stroke="#000000" stroke-width="1.0" stroke-linejoin="round" stroke-linecap="butt" d="m26.603674 77.49209l0 0c0 -10.636917 8.622927 -19.259842 19.259844 -19.259842l0 0c5.1080284 0 10.006844 2.0291557 13.618763 5.641079c3.6119232 3.6119194 5.641079 8.510738 5.641079 13.618763l0 0c0 10.636917 -8.622925 19.259842 -19.259842 19.259842l0 0c-10.636917 0 -19.259844 -8.622925 -19.259844 -19.259842z" fill-rule="evenodd"/><path fill="#d9d9d9" d="m148.11333 77.490814l0 0c0 -10.636917 8.622925 -19.259842 19.259842 -19.259842l0 0c5.108032 0 10.006836 2.0291557 13.618759 5.641075c3.6119232 3.6119232 5.641083 8.510742 5.641083 13.618767l0 0c0 10.636917 -8.622925 19.259842 -19.259842 19.259842l0 0c-10.636917 0 -19.259842 -8.622925 -19.259842 -19.259842z" fill-rule="evenodd"/><path stroke="#000000" stroke-width="1.0" stroke-linejoin="round" stroke-linecap="butt" d="m148.11333 77.490814l0 0c0 -10.636917 8.622925 -19.259842 19.259842 -19.259842l0 0c5.108032 0 10.006836 2.0291557 13.618759 5.641075c3.6119232 3.6119232 5.641083 8.510742 5.641083 13.618767l0 0c0 10.636917 -8.622925 19.259842 -19.259842 19.259842l0 0c-10.636917 0 -19.259842 -8.622925 -19.259842 -19.259842z" fill-rule="evenodd"/><path fill="#d9d9d9" d="m85.40688 172.74072l0 0c0 -10.636917 8.622925 -19.259842 19.259842 -19.259842l0 0c5.1080246 0 10.006844 2.0291595 13.618767 5.641083c3.6119156 3.6119232 5.641075 8.510742 5.641075 13.618759l0 0c0 10.636917 -8.622925 19.259842 -19.259842 19.259842l0 0c-10.636917 0 -19.259842 -8.622925 -19.259842 -19.259842z" fill-rule="evenodd"/><path stroke="#000000" stroke-width="1.0" stroke-linejoin="round" stroke-linecap="butt" d="m85.40688 172.74072l0 0c0 -10.636917 8.622925 -19.259842 19.259842 -19.259842l0 0c5.1080246 0 10.006844 2.0291595 13.618767 5.641083c3.6119156 3.6119232 5.641075 8.510742 5.641075 13.618759l0 0c0 10.636917 -8.622925 19.259842 -19.259842 19.259842l0 0c-10.636917 0 -19.259842 -8.622925 -19.259842 -19.259842z" fill-rule="evenodd"/><path fill="#d9d9d9" d="m284.7349 77.49209l0 0c0 -10.636917 8.622925 -19.259842 19.259857 -19.259842l0 0c5.108032 0 10.006836 2.0291557 13.618774 5.641079c3.611908 3.6119194 5.641083 8.510738 5.641083 13.618763l0 0c0 10.636917 -8.622955 19.259842 -19.259857 19.259842l0 0c-10.636932 0 -19.259857 -8.622925 -19.259857 -19.259842z" fill-rule="evenodd"/><path stroke="#000000" stroke-width="1.0" stroke-linejoin="round" stroke-linecap="butt" d="m284.7349 77.49209l0 0c0 -10.636917 8.622925 -19.259842 19.259857 -19.259842l0 0c5.108032 0 10.006836 2.0291557 13.618774 5.641079c3.611908 3.6119194 5.641083 8.510738 5.641083 13.618763l0 0c0 10.636917 -8.622955 19.259842 -19.259857 19.259842l0 0c-10.636932 0 -19.259857 -8.622925 -19.259857 -19.259842z" fill-rule="evenodd"/><path fill="#d9d9d9" d="m284.73495 178.37065l0 0c0 -10.636917 8.622925 -19.259842 19.259857 -19.259842l0 0c5.108032 0 10.006836 2.0291595 13.618774 5.6410675c3.611908 3.6119232 5.6410522 8.510742 5.6410522 13.618774l0 0c0 10.636917 -8.622925 19.259842 -19.259827 19.259842l0 0c-10.636932 0 -19.259857 -8.622925 -19.259857 -19.259842z" fill-rule="evenodd"/><path stroke="#000000" stroke-width="1.0" stroke-linejoin="round" stroke-linecap="butt" d="m284.73495 178.37065l0 0c0 -10.636917 8.622925 -19.259842 19.259857 -19.259842l0 0c5.108032 0 10.006836 2.0291595 13.618774 5.6410675c3.611908 3.6119232 5.6410522 8.510742 5.6410522 13.618774l0 0c0 10.636917 -8.622925 19.259842 -19.259827 19.259842l0 0c-10.636932 0 -19.259857 -8.622925 -19.259857 -19.259842z" fill-rule="evenodd"/><path fill="#000000" fill-opacity="0.0" d="m303.99475 96.75193l0 62.362206" fill-rule="evenodd"/><path stroke="#000000" stroke-width="1.0" stroke-linejoin="round" stroke-linecap="butt" d="m303.99475 96.75193l0 62.362206" fill-rule="evenodd"/><path fill="#d9d9d9" d="m348.7349 77.49209l0 0c0 -10.636917 8.622925 -19.259842 19.259857 -19.259842l0 0c5.108032 0 10.006836 2.0291557 13.618774 5.641079c3.611908 3.6119194 5.641083 8.510738 5.641083 13.618763l0 0c0 10.636917 -8.622955 19.259842 -19.259857 19.259842l0 0c-10.636932 0 -19.259857 -8.622925 -19.259857 -19.259842z" fill-rule="evenodd"/><path stroke="#000000" stroke-width="1.0" stroke-linejoin="round" stroke-linecap="butt" d="m348.7349 77.49209l0 0c0 -10.636917 8.622925 -19.259842 19.259857 -19.259842l0 0c5.108032 0 10.006836 2.0291557 13.618774 5.641079c3.611908 3.6119194 5.641083 8.510738 5.641083 13.618763l0 0c0 10.636917 -8.622955 19.259842 -19.259857 19.259842l0 0c-10.636932 0 -19.259857 -8.622925 -19.259857 -19.259842z" fill-rule="evenodd"/><path fill="#d9d9d9" d="m348.73495 178.37065l0 0c0 -10.636917 8.622925 -19.259842 19.259857 -19.259842l0 0c5.108032 0 10.006836 2.0291595 13.618774 5.6410675c3.611908 3.6119232 5.6410522 8.510742 5.6410522 13.618774l0 0c0 10.636917 -8.622925 19.259842 -19.259827 19.259842l0 0c-10.636932 0 -19.259857 -8.622925 -19.259857 -19.259842z" fill-rule="evenodd"/><path stroke="#000000" stroke-width="1.0" stroke-linejoin="round" stroke-linecap="butt" d="m348.73495 178.37065l0 0c0 -10.636917 8.622925 -19.259842 19.259857 -19.259842l0 0c5.108032 0 10.006836 2.0291595 13.618774 5.6410675c3.611908 3.6119232 5.6410522 8.510742 5.6410522 13.618774l0 0c0 10.636917 -8.622925 19.259842 -19.259827 19.259842l0 0c-10.636932 0 -19.259857 -8.622925 -19.259857 -19.259842z" fill-rule="evenodd"/><path fill="#000000" fill-opacity="0.0" d="m367.99475 96.75193l0 62.362206" fill-rule="evenodd"/><path stroke="#000000" stroke-width="1.0" stroke-linejoin="round" stroke-linecap="butt" d="m367.99475 96.75193l0 62.362206" fill-rule="evenodd"/><path fill="#000000" fill-opacity="0.0" d="m91.31233 -2.1811023l74.267715 0l0 42.015747l-74.267715 0z" fill-rule="evenodd"/><path fill="#000000" d="m100.28108 24.738895l5.125 -13.359375l1.90625 0l5.46875 13.359375l-2.015625 0l-1.546875 -4.046875l-5.59375 0l-1.46875 4.046875l-1.875 0zm3.859375 -5.484375l4.53125 0l-1.40625 -3.703125q-0.625 -1.6875 -0.9375 -2.765625q-0.265625 1.28125 -0.71875 2.546875l-1.46875 3.921875z" fill-rule="nonzero"/><path fill="#000000" fill-opacity="0.0" d="m315.16272 -2.1811023l74.26773 0l0 42.015747l-74.26773 0z" fill-rule="evenodd"/><path fill="#000000" d="m325.5221 24.738895l0 -13.359375l5.015625 0q1.53125 0 2.453125 0.40625q0.921875 0.40625 1.4375 1.25q0.53125 0.84375 0.53125 1.765625q0 0.859375 -0.46875 1.625q-0.453125 0.75 -1.390625 1.203125q1.203125 0.359375 1.859375 1.21875q0.65625 0.859375 0.65625 2.015625q0 0.9375 -0.40625 1.75q-0.390625 0.796875 -0.984375 1.234375q-0.578125 0.4375 -1.453125 0.671875q-0.875 0.21875 -2.15625 0.21875l-5.09375 0zm1.78125 -7.75l2.875 0q1.1875 0 1.6875 -0.140625q0.671875 -0.203125 1.015625 -0.671875q0.34375 -0.46875 0.34375 -1.171875q0 -0.65625 -0.328125 -1.15625q-0.3125 -0.515625 -0.90625 -0.703125q-0.59375 -0.1875 -2.03125 -0.1875l-2.65625 0l0 4.03125zm0 6.171875l3.3125 0q0.859375 0 1.203125 -0.0625q0.609375 -0.109375 1.015625 -0.359375q0.421875 -0.265625 0.6875 -0.75q0.265625 -0.484375 0.265625 -1.125q0 -0.75 -0.390625 -1.296875q-0.375 -0.546875 -1.0625 -0.765625q-0.671875 -0.234375 -1.953125 -0.234375l-3.078125 0l0 4.59375z" fill-rule="nonzero"/></g></svg>